<svg width="51" height="50" viewBox="0 0 51 50" fill="none" xmlns="http://www.w3.org/2000/svg">
<path d="M47.5168 17.1381C47.2285 15.7926 45.4057 15.4571 44.628 16.6059L43.7832 17.8542C41.0537 9.7144 33.1245 4 24.1308 4C18.4475 4 13.149 6.18664 9.21328 10.157C5.27965 14.1252 3.23881 19.3483 3.46696 24.8651C3.89763 35.3107 12.6857 43.7494 23.4722 44.0747C33.4775 44.3947 42.3434 37.6813 44.3711 28.1377C44.5546 27.2821 43.9875 26.4443 43.1037 26.2665C42.2234 26.0849 41.3561 26.6382 41.1729 27.4944C39.4527 35.5225 32.0613 41.155 23.5743 40.9108C14.6436 40.6409 7.08811 33.3865 6.73081 24.7382C6.53851 20.0906 8.2573 15.6907 11.5694 12.3493C14.8832 9.0066 19.3446 7.16535 24.1307 7.16535C31.4646 7.16535 37.9547 11.6771 40.4459 18.184L39.5649 17.6236C38.3798 16.8692 36.8452 17.8805 37.1334 19.2259C37.2192 19.6266 37.4657 19.9775 37.8186 20.2017L42.2065 22.9921C42.9413 23.4596 43.9277 23.2609 44.4097 22.5489L47.289 18.2965C47.5207 17.9551 47.6022 17.5381 47.5168 17.1377L47.5168 17.1381Z" fill="#C18050"/>
<path d="M24.2363 11.3203C17.74 11.3203 12.4697 16.7287 12.4697 23.3958C12.4697 30.0623 17.7398 35.4713 24.2363 35.4713C30.7328 35.4713 36.0186 30.0629 36.0186 23.3958C36.0186 16.7287 30.7324 11.3203 24.2363 11.3203ZM27.6116 25.0299H24.2363C23.3607 25.0299 22.6441 24.2945 22.6441 23.396V19.7848C22.6441 18.8862 23.3607 18.1508 24.2363 18.1508C25.1119 18.1508 25.8284 18.8862 25.8284 19.7848V21.762H27.6118C28.4874 21.762 29.204 22.4974 29.204 23.396C29.2036 24.2946 28.4874 25.0299 27.6115 25.0299H27.6116Z" fill="#C18050"/>
</svg>
