<svg width="24" height="24" viewBox="0 0 24 24" fill="none" xmlns="http://www.w3.org/2000/svg">
<path d="M5.0959 14.9437H6.7959C6.7959 14.4854 6.6293 14.0929 6.2961 13.7662C5.9629 13.4395 5.56283 13.2765 5.0959 13.277V14.9437ZM8.1134 14.9437H9.3459C9.3459 13.7909 8.93138 12.8081 8.10235 11.9954C7.27332 11.1826 6.27117 10.7765 5.0959 10.777V11.9854C5.93173 11.9854 6.64375 12.2737 7.23195 12.8504C7.82015 13.427 8.11397 14.1248 8.1134 14.9437ZM10.6634 14.9437H11.8959C11.8959 14.027 11.7188 13.1623 11.3646 12.3495C11.0105 11.5367 10.5251 10.8284 9.9086 10.2245C9.29263 9.62063 8.57042 9.14507 7.74195 8.79785C6.91348 8.45063 6.03147 8.27702 5.0959 8.27702V9.48535C6.64007 9.48535 7.95417 10.0167 9.0382 11.0795C10.1222 12.1423 10.664 13.4304 10.6634 14.9437ZM7.6459 19.1104V17.4437H4.2459C3.7784 17.4437 3.37805 17.2804 3.04485 16.9537C2.71165 16.627 2.54533 16.2348 2.5459 15.777V5.77702C2.5459 5.31869 2.7125 4.92619 3.0457 4.59952C3.3789 4.27285 3.77897 4.1098 4.2459 4.11035H17.8459C18.3134 4.11035 18.7137 4.27369 19.0469 4.60035C19.3801 4.92702 19.5465 5.31924 19.5459 5.77702V15.777C19.5459 16.2354 19.3793 16.6279 19.0461 16.9545C18.7129 17.2812 18.3128 17.4442 17.8459 17.4437H14.4459V19.1104H7.6459Z" fill="#1C3431"/>
</svg>
