<svg width="29" height="29" viewBox="0 0 29 29" fill="none" xmlns="http://www.w3.org/2000/svg">
<path fill-rule="evenodd" clip-rule="evenodd" d="M8.09717 18.541H23.1614V19.4271H8.09717V18.541Z" fill="#1C3431"/>
<path fill-rule="evenodd" clip-rule="evenodd" d="M8.09717 3.18152H18.7307V4.06765H8.09717V3.18152Z" fill="#1C3431"/>
<path fill-rule="evenodd" clip-rule="evenodd" d="M4.25451 14.849C4.25451 16.9049 5.97493 18.5715 8.09717 18.5715L8.09717 19.4273C5.48706 19.4273 3.37114 17.3775 3.37114 14.849C3.37114 12.3204 5.48705 10.2706 8.09717 10.2706L8.09717 11.1264C5.97493 11.1264 4.25451 12.793 4.25451 14.849Z" fill="#1C3431"/>
<path fill-rule="evenodd" clip-rule="evenodd" d="M22.5818 7.6122C22.5818 5.67981 20.8888 4.0589 18.731 4.0589L18.731 3.18155C21.31 3.18155 23.457 5.13517 23.457 7.6122C23.457 10.0892 21.31 12.0428 18.731 12.0428L18.731 11.1655C20.8888 11.1655 22.5818 9.54458 22.5818 7.6122Z" fill="#1C3431"/>
<path d="M8.39258 10.7968V24.8546C8.60349 25.6301 10.5017 25.6184 11.4245 25.5156C12.2681 25.3041 14.7639 25.6037 15.9064 25.78C17.6991 26.203 18.7332 25.6037 19.0261 25.2512L18.7625 10.5765C18.7625 9.48359 17.3857 9.35725 16.6973 9.4307C16.0997 9.74799 14.925 10.0036 14.4124 10.0917C12.9712 10.1975 11.6149 9.69511 11.1169 9.4307C8.93744 9.14866 8.39258 10.2239 8.39258 10.7968Z" fill="#1C3431" stroke="#1C3431" stroke-width="0.272943"/>
<path d="M19.1889 12.3383H18.731L18.9345 23.5626C19.7893 23.4223 19.6638 22.4518 19.4942 21.9842L19.1889 12.3383Z" fill="#1C3431"/>
<circle cx="6.6204" cy="3.77226" r="1.77226" fill="#1C3431"/>
<circle cx="23.1614" cy="19.1319" r="1.77226" fill="#1C3431"/>
</svg>
