<svg width="25" height="24" viewBox="0 0 25 24" fill="none" xmlns="http://www.w3.org/2000/svg">
<path d="M22.3713 9C21.5953 9.01944 20.8284 8.82945 20.1513 8.45C19.6104 8.13961 18.9946 7.98393 18.3713 8V7C19.1472 6.98056 19.9141 7.17055 20.5913 7.55C21.1321 7.86039 21.7479 8.01607 22.3713 8M22.3713 6C21.7479 6.01607 21.1321 5.86039 20.5913 5.55C19.9141 5.17055 19.1472 4.98056 18.3713 5V6C18.9946 5.98393 19.6104 6.13961 20.1513 6.45C20.8284 6.82945 21.5953 7.01944 22.3713 7M22.3713 10C21.7479 10.0161 21.1321 9.86039 20.5913 9.55C19.9141 9.17055 19.1472 8.98056 18.3713 9V10C18.9946 9.98393 19.6104 10.1396 20.1513 10.45C20.8284 10.8294 21.5953 11.0194 22.3713 11M10.3713 12.73C12.7326 12.2733 15.069 11.6959 17.3713 11V4C17.3713 4 10.8713 2 7.87125 2C6.53575 2.00376 5.24724 2.49332 4.24617 3.37732C3.24511 4.26132 2.59989 5.47936 2.43093 6.80414C2.26196 8.12891 2.5808 9.46991 3.32793 10.5769C4.07506 11.6838 5.19944 12.4811 6.49125 12.82L7.37125 19H8.37125C8.41124 19.4766 8.56462 19.9368 8.81859 20.3421C9.07257 20.7474 9.41977 21.0861 9.83125 21.33C10.2952 21.6058 10.6805 21.9962 10.9501 22.4638C11.2198 22.9313 11.3648 23.4603 11.3713 24H12.3713C12.3667 23.3111 12.1895 22.6343 11.8558 22.0316C11.5222 21.4289 11.0427 20.9195 10.4613 20.55C9.76125 20 9.37125 19.63 9.37125 19H10.3713M7.87125 10C7.3768 10 6.89345 9.85338 6.48233 9.57867C6.0712 9.30397 5.75077 8.91352 5.56155 8.45671C5.37233 7.99989 5.32282 7.49723 5.41929 7.01227C5.51575 6.52732 5.75385 6.08186 6.10348 5.73223C6.45312 5.3826 6.89857 5.1445 7.38353 5.04804C7.86848 4.95157 8.37114 5.00108 8.82796 5.1903C9.28478 5.37952 9.67522 5.69995 9.94993 6.11107C10.2246 6.5222 10.3713 7.00555 10.3713 7.5C10.3713 8.16304 10.1079 8.79893 9.63902 9.26777C9.17018 9.73661 8.53429 10 7.87125 10Z" fill="#1C3431"/>
</svg>
