<svg width="25" height="24" viewBox="0 0 25 24" fill="none" xmlns="http://www.w3.org/2000/svg">
<path d="M11.6737 0.981812C11.6737 0.981812 11.2615 1.19754 10.8444 1.51635C10.6382 1.67599 10.4225 1.862 10.2451 2.08156C10.0677 2.30065 9.90953 2.56432 9.90953 2.89751C9.90953 3.23069 10.1061 3.50395 10.3026 3.67031C10.4992 3.83714 10.7149 3.94452 10.9067 4.04616C11.0985 4.14731 11.2662 4.24271 11.3573 4.31846C11.4484 4.39421 11.4436 4.40331 11.4436 4.4316C11.4436 4.45892 11.4101 4.56823 11.2998 4.70438C11.2375 4.78108 11.156 4.86498 11.0649 4.94648C11.4436 4.89854 11.8319 4.86498 12.2251 4.84101C12.273 4.71732 12.3066 4.58165 12.3066 4.4316C12.3066 4.09841 12.11 3.82515 11.9134 3.6588C11.7169 3.49197 11.5012 3.38458 11.3094 3.28295C11.1176 3.18179 10.9498 3.08639 10.8588 3.01065C10.7677 2.9349 10.7725 2.92579 10.7725 2.89751C10.7725 2.86922 10.806 2.7604 10.9163 2.62425C11.0265 2.4881 11.1943 2.33565 11.3717 2.20237C11.7217 1.93487 12.0764 1.74502 12.0764 1.74502L11.6737 0.981812ZM15.509 0.981812C15.509 0.981812 15.0967 1.19754 14.6796 1.51635C14.4735 1.67599 14.2577 1.862 14.0803 2.08156C13.903 2.30065 13.7448 2.56432 13.7448 2.89751C13.7448 3.23069 13.9413 3.50395 14.1379 3.67031C14.3344 3.83714 14.5502 3.94452 14.7419 4.04616C14.9337 4.14731 15.1015 4.24271 15.1926 4.31846C15.2836 4.39421 15.2789 4.40331 15.2789 4.4316C15.2789 4.45892 15.2453 4.56823 15.135 4.70438C15.1159 4.73027 15.0919 4.75663 15.0679 4.78348C15.4083 4.75999 15.7487 4.74465 16.0938 4.7389C16.1226 4.6435 16.1418 4.54138 16.1418 4.4316C16.1418 4.09841 15.9452 3.82515 15.7487 3.6588C15.5521 3.49197 15.3364 3.38458 15.1446 3.28295C14.9529 3.18179 14.7851 3.08639 14.694 3.01065C14.6029 2.9349 14.6077 2.92579 14.6077 2.89751C14.6077 2.86922 14.6412 2.7604 14.7515 2.62425C14.8618 2.4881 15.0296 2.33565 15.2069 2.20237C15.5569 1.93487 15.9117 1.74502 15.9117 1.74502L15.509 0.981812ZM19.4401 0.981812C19.4401 0.981812 19.0278 1.19754 18.6107 1.51635C18.4046 1.67599 18.1888 1.862 18.0115 2.08156C17.8341 2.30065 17.6759 2.56432 17.6759 2.89751C17.6759 3.23069 17.8724 3.50395 18.069 3.67031C18.2655 3.83714 18.4813 3.94452 18.673 4.04616C18.8648 4.14731 19.0326 4.24271 19.1237 4.31846C19.2148 4.39421 19.21 4.40331 19.21 4.4316C19.21 4.45892 19.1764 4.56823 19.0661 4.70438C19.0134 4.76814 18.9511 4.83622 18.8792 4.90333C19.2195 4.95127 19.5455 5.01359 19.8572 5.08551C19.9818 4.89854 20.0729 4.68616 20.0729 4.4316C20.0729 4.09841 19.8763 3.82515 19.6798 3.6588C19.4832 3.49197 19.2675 3.38458 19.0757 3.28295C18.884 3.18179 18.7162 3.08639 18.6251 3.01065C18.534 2.9349 18.5388 2.92579 18.5388 2.89751C18.5388 2.86922 18.5724 2.7604 18.6826 2.62425C18.7929 2.4881 18.9607 2.33565 19.1381 2.20237C19.488 1.93487 19.8428 1.74502 19.8428 1.74502L19.4401 0.981812ZM13.04 5.67517C11.5395 5.69914 10.0438 5.91008 8.97949 6.26963C8.45215 6.44701 8.03507 6.66274 7.78578 6.87847C7.54128 7.09421 7.46937 7.25241 7.49334 7.44896C7.55087 8.03863 8.21245 8.5468 8.21245 8.5468L8.409 8.68103L8.38983 9.22755H10.5376L10.504 8.35024L11.3669 8.31189L11.4053 9.22755H14.4255L14.4063 8.44133L15.2693 8.42215L15.2884 9.22755H17.7382L17.6807 8.31668L18.0546 8.24477C18.0546 8.24477 18.2272 8.20642 18.4046 8.08178C18.5867 7.95713 18.7449 7.79893 18.7497 7.41541C18.7545 7.1757 18.6539 6.97915 18.3854 6.75383C18.1169 6.5333 17.6855 6.31757 17.1437 6.14978C16.1226 5.82858 14.7323 5.67038 13.3229 5.67517H13.04ZM18.3518 5.70873C18.5724 5.81899 18.7689 5.94843 18.9415 6.09705C19.3442 6.43263 19.6222 6.90244 19.6127 7.43458C19.5983 8.09616 19.2339 8.55639 18.8983 8.79129C18.7881 8.868 18.6826 8.92073 18.5867 8.96388L18.6011 9.22755H20.816L20.7536 8.24477L21.1276 8.17286C21.1276 8.17286 21.3002 8.13451 21.4775 8.00987C21.6549 7.88522 21.8179 7.72702 21.8227 7.3387C21.8275 7.099 21.7268 6.90724 21.4584 6.68192C21.1899 6.4566 20.7584 6.24087 20.2167 6.07308C19.6798 5.90528 19.0422 5.78543 18.3518 5.70873ZM8.47132 10.0905C7.8481 10.0905 7.17214 10.4165 6.66877 10.9246C6.1606 11.428 5.83461 12.104 5.83461 12.7272V17.6651H18.0498C18.2559 16.5768 19.2148 15.7474 20.3605 15.7474C21.5063 15.7474 22.4651 16.5768 22.6713 17.6651H23.3808V12.7272C23.3808 12.104 23.0548 11.428 22.5466 10.9246C22.0432 10.4165 21.3673 10.0905 20.7441 10.0905H8.47132ZM20.3605 16.6104C19.536 16.6104 18.8744 17.2719 18.8744 18.0965C18.8744 18.9211 19.536 19.5827 20.3605 19.5827C21.1851 19.5827 21.8467 18.9211 21.8467 18.0965C21.8467 17.2719 21.1851 16.6104 20.3605 16.6104ZM5.83461 18.528V21.5003H23.3808V18.528H22.6713C22.4651 19.6162 21.5063 20.4456 20.3605 20.4456C19.2148 20.4456 18.2559 19.6162 18.0498 18.528H5.83461ZM3.67585 18.8108C3.10201 18.83 2.33496 19.1991 2.33496 19.9662V20.3976H4.97168V19.5347H4.03588L3.67585 18.8108ZM7.3687 22.3632V23.8014H8.80691V22.3632H7.3687ZM20.4085 22.3632V23.8014H21.8467V22.3632H20.4085Z" fill="#1C3431"/>
</svg>
