<svg width="59" height="60" viewBox="0 0 59 60" fill="none" xmlns="http://www.w3.org/2000/svg">
<rect x="0.5" y="0.860107" width="58" height="58" rx="29" fill="#C18050"/>
<path d="M13.0692 24.6087L13.0265 18.1288L16.3265 18.1071C17.1198 18.1019 17.7274 18.2479 18.1494 18.5451C18.578 18.8356 18.7941 19.2609 18.7978 19.8209C18.8002 20.1809 18.7187 20.4681 18.5535 20.6825C18.3948 20.8902 18.1659 21.0484 17.8666 21.157C17.5672 21.259 17.2143 21.3247 16.8078 21.354L16.8474 21.2937C17.1408 21.2985 17.4176 21.3233 17.678 21.3683C17.9449 21.4065 18.1787 21.4783 18.3794 21.5837C18.5867 21.689 18.7477 21.8379 18.8623 22.0305C18.9836 22.2164 19.0452 22.4593 19.0471 22.7593C19.0498 23.1593 18.9519 23.4899 18.7537 23.7512C18.5554 24.0126 18.28 24.2144 17.9276 24.3567C17.5752 24.4923 17.169 24.5684 16.7091 24.5847L13.0692 24.6087ZM14.2028 23.6312L16.5327 23.6159C16.966 23.613 17.3022 23.5375 17.5412 23.3892C17.7802 23.2343 17.8987 22.9969 17.8966 22.6769C17.8949 22.4235 17.8204 22.2407 17.673 22.1283C17.5255 22.0093 17.335 21.9339 17.1014 21.9021C16.8746 21.8702 16.6311 21.8552 16.3711 21.8569L14.1912 21.8712L14.2028 23.6312ZM14.1849 20.9212L16.2749 20.9075C16.7082 20.9046 17.0411 20.8291 17.2734 20.6809C17.5124 20.526 17.6308 20.2852 17.6287 19.9586C17.6266 19.6386 17.5051 19.4127 17.2642 19.2809C17.03 19.1425 16.7228 19.0745 16.3428 19.077L14.1729 19.0913L14.1849 20.9212ZM20.2065 24.5617L20.1639 18.0818L23.9938 18.0566C24.4738 18.0535 24.8909 18.1207 25.2452 18.2584C25.5994 18.3894 25.8741 18.5976 26.0693 18.883C26.2645 19.1617 26.3635 19.5211 26.3664 19.9611C26.3683 20.2544 26.32 20.5081 26.2214 20.722C26.1227 20.9294 25.9839 21.1003 25.8047 21.2348C25.6256 21.3693 25.4163 21.474 25.1768 21.5489C24.944 21.6238 24.6943 21.6721 24.4277 21.6939L24.3273 21.6245C24.754 21.6284 25.1076 21.6661 25.388 21.7376C25.6685 21.8024 25.8827 21.931 26.0306 22.1233C26.1785 22.309 26.2536 22.5852 26.2561 22.9519L26.2664 24.5218L25.1364 24.5293L25.1265 23.0193C25.1248 22.766 25.0768 22.5696 24.9826 22.4302C24.895 22.2841 24.741 22.1852 24.5206 22.1333C24.3069 22.0747 24.0001 22.0467 23.6001 22.0493L21.3301 22.0643L21.3465 24.5542L20.2065 24.5617ZM21.324 21.1343L24.0139 21.1166C24.4139 21.1139 24.7166 21.012 24.9219 20.8106C25.1273 20.6092 25.2289 20.3452 25.2267 20.0186C25.2247 19.7052 25.1198 19.4659 24.912 19.3006C24.7042 19.1287 24.4003 19.044 24.0003 19.0466L21.3104 19.0643L21.324 21.1343ZM28.8563 21.7447L28.868 23.5247L33.4179 23.4948L33.4244 24.4747L27.7345 24.5122L27.6918 18.0323L33.3717 17.9949L33.3782 18.9749L28.8383 19.0048L28.8501 20.8048L32.57 20.7803L32.5762 21.7203L28.8563 21.7447ZM35.6446 22.9401L35.6382 21.9701L39.4982 21.9447L39.5045 22.9147L35.6446 22.9401ZM34.1547 24.4699L36.942 17.9715L38.1619 17.9634L41.0545 24.4245L39.8245 24.4326L37.3061 18.5991L37.8061 18.5958L35.3746 24.4619L34.1547 24.4699ZM44.2693 21.2533L44.2557 20.7034L48.42 24.3761L46.81 24.3867L43.0777 21.0111L46.3474 17.9096L47.9373 17.8991L44.2693 21.2533ZM41.9275 17.9386L43.0674 17.9311L43.1101 24.411L41.9701 24.4185L41.9275 17.9386ZM23.9458 30.0572L23.9522 31.0372L19.4123 31.0671L19.4247 32.947L23.1446 32.9226L23.1508 33.8625L19.4309 33.887L19.4485 36.5669L18.3086 36.5745L18.2659 30.0946L23.9458 30.0572ZM25.1738 35.0092L25.1674 34.0393L29.0273 34.0139L29.0337 34.9839L25.1738 35.0092ZM23.6838 36.5391L26.4711 30.0406L27.6911 30.0326L30.5837 36.4937L29.3537 36.5018L26.8353 30.6682L27.3353 30.6649L24.9038 36.5311L23.6838 36.5391ZM30.9966 34.3409L32.1065 34.3336C32.1348 34.5801 32.233 34.8028 32.4009 35.0017C32.5755 35.1939 32.8032 35.3457 33.0839 35.4572C33.3713 35.562 33.6983 35.6132 34.065 35.6108C34.3916 35.6086 34.6614 35.5668 34.8742 35.4854C35.087 35.404 35.2429 35.293 35.342 35.1523C35.4477 35.005 35.4999 34.8346 35.4986 34.6413C35.4974 34.448 35.433 34.2984 35.3057 34.1926C35.1849 34.08 34.9977 33.9879 34.7438 33.9163C34.49 33.8379 34.1662 33.7634 33.7724 33.6926C33.4453 33.6348 33.1281 33.5569 32.8208 33.4589C32.5135 33.3609 32.236 33.2361 31.9883 33.0844C31.7473 32.9326 31.5561 32.7472 31.4146 32.5281C31.2732 32.3024 31.2014 32.0362 31.1994 31.7295C31.1971 31.3829 31.2917 31.0689 31.4832 30.7876C31.6813 30.5063 31.9732 30.2844 32.3588 30.1219C32.7444 29.9593 33.2139 29.8762 33.7672 29.8726C34.6139 29.867 35.2618 30.0594 35.7111 30.4498C36.1603 30.8335 36.3804 31.3588 36.3714 32.0255L35.2815 32.0327C35.2587 31.6128 35.1034 31.3105 34.8155 31.1257C34.5276 30.9409 34.1637 30.85 33.7237 30.8529C33.3303 30.8555 33.0008 30.9277 32.7351 31.0694C32.4693 31.2112 32.3375 31.4387 32.3396 31.752C32.3404 31.8854 32.3712 32.0018 32.4319 32.1014C32.4991 32.1943 32.6064 32.2803 32.7536 32.3593C32.9007 32.4317 33.1012 32.5037 33.355 32.5754C33.6154 32.6403 33.9326 32.7116 34.3064 32.7891C34.6268 32.8403 34.9272 32.9117 35.2078 33.0032C35.4885 33.0947 35.7326 33.2097 35.9401 33.3484C36.1544 33.487 36.3222 33.6659 36.4437 33.8851C36.5651 34.1043 36.6269 34.3739 36.629 34.6939C36.6314 35.0605 36.5402 35.3878 36.3555 35.6757C36.1706 35.9569 35.8854 36.1821 35.4999 36.3513C35.1209 36.5138 34.6281 36.5971 34.0215 36.6011C33.5615 36.6041 33.1578 36.5534 32.8105 36.449C32.4697 36.3379 32.1788 36.1965 31.9377 36.0248C31.6965 35.8463 31.5019 35.6543 31.3539 35.4486C31.2125 35.2429 31.1112 35.0435 31.0499 34.8506C30.9953 34.6509 30.9775 34.4811 30.9966 34.3409ZM37.1249 29.9705L43.3448 29.9296L43.3512 30.9096L37.1313 30.9505L37.1249 29.9705ZM39.6805 30.8137L40.8105 30.8063L40.8474 36.4262L39.7175 36.4336L39.6805 30.8137Z" fill="white"/>
<rect x="0.5" y="0.860107" width="58" height="58" rx="29" stroke="white"/>
</svg>
