<svg width="59" height="59" viewBox="0 0 59 59" fill="none" xmlns="http://www.w3.org/2000/svg">
<rect width="59" height="59" rx="29.5" fill="#C18050"/>
<path d="M12.0794 28.6145L12.0368 22.1347L15.3367 22.113C16.13 22.1077 16.7376 22.2537 17.1596 22.551C17.5882 22.8415 17.8043 23.2667 17.808 23.8267C17.8104 24.1867 17.7289 24.4739 17.5637 24.6884C17.405 24.8961 17.1761 25.0542 16.8768 25.1629C16.5775 25.2649 16.2245 25.3305 15.8181 25.3599L15.8577 25.2996C16.151 25.3043 16.4279 25.3292 16.6882 25.3741C16.9551 25.4124 17.1889 25.4842 17.3896 25.5895C17.597 25.6948 17.758 25.8438 17.8726 26.0364C17.9938 26.2222 18.0554 26.4652 18.0574 26.7652C18.06 27.1651 17.9622 27.4958 17.7639 27.7571C17.5656 28.0184 17.2902 28.2202 16.9378 28.3626C16.5854 28.4982 16.1792 28.5742 15.7193 28.5906L12.0794 28.6145ZM13.213 27.637L15.5429 27.6217C15.9763 27.6189 16.3124 27.5433 16.5515 27.3951C16.7905 27.2402 16.9089 27.0027 16.9068 26.6827C16.9051 26.4294 16.8306 26.2465 16.6832 26.1342C16.5357 26.0151 16.3452 25.9397 16.1117 25.9079C15.8848 25.8761 15.6414 25.861 15.3814 25.8627L13.2014 25.8771L13.213 27.637ZM13.1952 24.9271L15.2851 24.9134C15.7184 24.9105 16.0513 24.835 16.2836 24.6868C16.5226 24.5319 16.641 24.2911 16.6389 23.9644C16.6368 23.6444 16.5153 23.4186 16.2744 23.2868C16.0402 23.1483 15.7331 23.0804 15.3531 23.0829L13.1831 23.0971L13.1952 24.9271ZM19.2167 28.5676L19.1741 22.0877L23.004 22.0625C23.484 22.0593 23.9011 22.1266 24.2554 22.2643C24.6096 22.3953 24.8843 22.6035 25.0795 22.8889C25.2747 23.1676 25.3737 23.5269 25.3766 23.9669C25.3785 24.2603 25.3302 24.5139 25.2316 24.7279C25.133 24.9352 24.9941 25.1061 24.815 25.2407C24.6359 25.3752 24.4265 25.4799 24.187 25.5548C23.9542 25.6297 23.7045 25.678 23.438 25.6997L23.3375 25.6304C23.7642 25.6342 24.1178 25.6719 24.3983 25.7434C24.6787 25.8082 24.8929 25.9368 25.0408 26.1292C25.1887 26.3149 25.2639 26.5911 25.2663 26.9577L25.2766 28.5277L24.1466 28.5351L24.1367 27.0252C24.135 26.7718 24.0871 26.5755 23.9928 26.4361C23.9052 26.29 23.7512 26.191 23.5309 26.1391C23.3171 26.0805 23.0103 26.0525 22.6103 26.0552L20.3403 26.0701L20.3567 28.5601L19.2167 28.5676ZM20.3342 25.1401L23.0242 25.1224C23.4241 25.1198 23.7268 25.0178 23.9322 24.8165C24.1375 24.6151 24.2391 24.3511 24.237 24.0244C24.2349 23.7111 24.13 23.4718 23.9222 23.3065C23.7144 23.1345 23.4105 23.0498 23.0105 23.0525L20.3206 23.0702L20.3342 25.1401ZM27.8665 25.7506L27.8782 27.5306L32.4281 27.5006L32.4346 28.4806L26.7447 28.518L26.7021 22.0382L32.3819 22.0008L32.3884 22.9808L27.8485 23.0106L27.8603 24.8106L31.5803 24.7861L31.5864 25.7261L27.8665 25.7506ZM34.6548 26.946L34.6485 25.976L38.5084 25.9506L38.5148 26.9206L34.6548 26.946ZM33.1649 28.4758L35.9522 21.9773L37.1722 21.9693L40.0647 28.4304L38.8348 28.4385L36.3163 22.6049L36.8163 22.6016L34.3848 28.4678L33.1649 28.4758ZM43.2796 25.2592L43.2659 24.7092L47.4302 28.3819L45.8202 28.3925L42.0879 25.017L45.3576 21.9154L46.9476 21.905L43.2796 25.2592ZM40.9377 21.9445L42.0777 21.937L42.1203 28.4169L40.9803 28.4244L40.9377 21.9445ZM22.956 34.0631L22.9625 35.0431L18.4226 35.0729L18.4349 36.9529L22.1549 36.9284L22.161 37.8684L18.4411 37.8929L18.4588 40.5728L17.3188 40.5803L17.2761 34.1004L22.956 34.0631ZM24.184 39.0151L24.1776 38.0451L28.0376 38.0197L28.0439 38.9897L24.184 39.0151ZM22.6941 40.5449L25.4814 34.0465L26.7013 34.0384L29.5939 40.4995L28.3639 40.5076L25.8455 34.6741L26.3455 34.6708L23.914 40.5369L22.6941 40.5449ZM30.0068 38.3468L31.1168 38.3395C31.145 38.586 31.2432 38.8087 31.4112 39.0076C31.5858 39.1997 31.8134 39.3516 32.0942 39.4631C32.3815 39.5679 32.7085 39.619 33.0752 39.6166C33.4019 39.6145 33.6716 39.5727 33.8844 39.4913C34.0972 39.4099 34.2531 39.2989 34.3522 39.1582C34.4579 39.0108 34.5101 38.8405 34.5089 38.6472C34.5076 38.4538 34.4433 38.3043 34.3159 38.1984C34.1952 38.0859 34.0079 37.9938 33.7541 37.9221C33.5002 37.8438 33.1764 37.7692 32.7826 37.6985C32.4555 37.6407 32.1383 37.5627 31.831 37.4648C31.5237 37.3668 31.2462 37.2419 30.9985 37.0902C30.7575 36.9385 30.5663 36.7531 30.4249 36.534C30.2834 36.3083 30.2116 36.0421 30.2096 35.7354C30.2073 35.3887 30.3019 35.0748 30.4934 34.7935C30.6916 34.5122 30.9834 34.2903 31.3691 34.1277C31.7547 33.9652 32.2241 33.8821 32.7774 33.8785C33.6241 33.8729 34.272 34.0653 34.7213 34.4557C35.1705 34.8394 35.3906 35.3646 35.3817 36.0314L34.2917 36.0385C34.2689 35.6187 34.1136 35.3164 33.8257 35.1316C33.5378 34.9468 33.1739 34.8559 32.7339 34.8588C32.3406 34.8614 32.011 34.9335 31.7453 35.0753C31.4796 35.217 31.3477 35.4446 31.3498 35.7579C31.3507 35.8912 31.3814 36.0077 31.4421 36.1073C31.5094 36.2002 31.6166 36.2861 31.7638 36.3652C31.9109 36.4375 32.1114 36.5096 32.3652 36.5812C32.6256 36.6462 32.9428 36.7174 33.3166 36.795C33.637 36.8462 33.9375 36.9176 34.2181 37.009C34.4987 37.1005 34.7428 37.2156 34.9504 37.3542C35.1646 37.4928 35.3325 37.6717 35.4539 37.8909C35.5753 38.1101 35.6371 38.3797 35.6392 38.6997C35.6416 39.0664 35.5505 39.3937 35.3657 39.6816C35.1809 39.9628 34.8957 40.188 34.5101 40.3572C34.1312 40.5197 33.6384 40.6029 33.0317 40.6069C32.5717 40.61 32.1681 40.5593 31.8207 40.4549C31.48 40.3438 31.189 40.2024 30.9479 40.0306C30.7067 39.8522 30.5121 39.6602 30.3641 39.4545C30.2227 39.2487 30.1214 39.0494 30.0601 38.8564C30.0055 38.6568 29.9877 38.4869 30.0068 38.3468ZM36.1351 33.9764L42.355 33.9354L42.3614 34.9154L36.1416 34.9563L36.1351 33.9764ZM38.6907 34.8196L39.8207 34.8121L39.8577 40.432L38.7277 40.4394L38.6907 34.8196Z" fill="white"/>
</svg>
