<svg width="41" height="41" viewBox="0 0 41 41" fill="none" xmlns="http://www.w3.org/2000/svg">
<path d="M6.83334 30.75C6.34931 30.75 5.9433 30.586 5.6153 30.258C5.2873 29.93 5.12387 29.5246 5.12501 29.0417C5.12501 28.5576 5.28901 28.1516 5.61701 27.8236C5.94501 27.4956 6.35045 27.3322 6.83334 27.3333H25.625C26.109 27.3333 26.515 27.4973 26.843 27.8253C27.171 28.1533 27.3345 28.5588 27.3333 29.0417C27.3333 29.5257 27.1693 29.9317 26.8413 30.2597C26.5133 30.5877 26.1079 30.7511 25.625 30.75H6.83334ZM6.83334 22.2083C6.34931 22.2083 5.9433 22.0443 5.6153 21.7163C5.2873 21.3883 5.12387 20.9829 5.12501 20.5C5.12501 20.016 5.28901 19.61 5.61701 19.282C5.94501 18.954 6.35045 18.7905 6.83334 18.7917H20.5C20.984 18.7917 21.39 18.9557 21.718 19.2837C22.046 19.6117 22.2095 20.0171 22.2083 20.5C22.2083 20.984 22.0443 21.39 21.7163 21.718C21.3883 22.046 20.9829 22.2095 20.5 22.2083H6.83334ZM6.83334 13.6667C6.34931 13.6667 5.9433 13.5027 5.6153 13.1747C5.2873 12.8467 5.12387 12.4412 5.12501 11.9583C5.12501 11.4743 5.28901 11.0683 5.61701 10.7403C5.94501 10.4123 6.35045 10.2489 6.83334 10.25H25.625C26.109 10.25 26.515 10.414 26.843 10.742C27.171 11.07 27.3345 11.4755 27.3333 11.9583C27.3333 12.4424 27.1693 12.8484 26.8413 13.1764C26.5133 13.5044 26.1079 13.6678 25.625 13.6667H6.83334ZM29.725 20.5L34.6792 25.4542C34.9924 25.7674 35.149 26.166 35.149 26.65C35.149 27.134 34.9924 27.5326 34.6792 27.8458C34.366 28.159 33.9674 28.3156 33.4833 28.3156C32.9993 28.3156 32.6007 28.159 32.2875 27.8458L26.1375 21.6958C25.7958 21.3542 25.625 20.9556 25.625 20.5C25.625 20.0445 25.7958 19.6458 26.1375 19.3042L32.2875 13.1542C32.6007 12.841 32.9993 12.6844 33.4833 12.6844C33.9674 12.6844 34.366 12.841 34.6792 13.1542C34.9924 13.4674 35.149 13.866 35.149 14.35C35.149 14.834 34.9924 15.2326 34.6792 15.5458L29.725 20.5Z" fill="white"/>
</svg>
