<svg width="25" height="25" viewBox="0 0 25 25" fill="none" xmlns="http://www.w3.org/2000/svg">
<g clip-path="url(#clip0_444_2309)">
<path d="M20.4303 16.2969C19.9381 16.7341 19.4637 17.1629 18.9831 17.5925C18.2892 17.0846 17.6093 16.5871 16.9293 16.0897C16.9238 16.0965 16.9176 16.0973 16.9122 16.1041C16.9825 16.2119 17.0474 16.3266 17.1178 16.4344C17.4694 16.9735 17.8149 17.5134 18.1727 18.0517C18.2268 18.1308 18.219 18.1687 18.1384 18.2281C17.4929 18.697 16.8234 19.126 16.1245 19.5219C16.1013 19.5371 16.0773 19.5463 16.0416 19.5631C15.2831 18.6947 14.5316 17.8315 13.78 16.9684C13.7746 16.9752 13.7622 16.9768 13.7568 16.9836C14.1419 18.0346 14.527 19.0855 14.9198 20.1478C14.1133 20.5389 13.293 20.8703 12.4432 21.1685C11.8599 20.0935 11.2829 19.0178 10.7065 17.948C10.6941 17.9496 10.6879 17.9504 10.6756 17.952C10.6825 18.0064 10.6886 18.0548 10.6955 18.1092C10.8359 19.2158 10.9762 20.3224 11.122 21.4221C11.1373 21.543 11.1187 21.5946 10.9839 21.6239C10.4093 21.7583 9.83613 21.9047 9.26223 22.0451C9.23745 22.0482 9.21267 22.0514 9.1755 22.0561C9.17644 21.9147 9.17815 21.7793 9.18683 21.6491C9.2453 20.0258 9.07922 18.4186 8.74587 16.8327C8.60191 16.1444 8.42774 15.466 8.2652 14.7801C8.2498 14.7083 8.26455 14.6757 8.32963 14.6429C9.94343 13.8176 11.5565 12.9863 13.1757 12.1542C13.6723 11.9008 14.1689 11.6473 14.6586 11.3886C14.7353 11.3481 14.7802 11.3547 14.8389 11.421C16.0598 12.8083 17.3869 14.09 18.8699 15.2107C19.3155 15.5474 19.7827 15.8567 20.2454 16.179C20.2864 16.2045 20.3413 16.2406 20.4303 16.2969Z" fill="#413C39"/>
<path d="M10.5373 9.16359C9.77562 9.50492 9.02719 9.84458 8.27215 10.1851C8.24712 10.1465 8.2221 10.1079 8.19708 10.0692C6.81522 7.63612 5.43335 5.20298 4.05074 2.76397C3.94693 2.58017 3.83577 2.39132 3.73197 2.20752C3.45142 1.68799 3.6726 1.10483 4.25386 0.822191C4.52581 0.692195 4.80223 0.597446 5.10824 0.630258C5.5302 0.678207 5.83653 0.872139 6.02722 1.21206C6.59853 2.22593 7.17645 3.23897 7.74776 4.25284C8.65478 5.85087 9.56179 7.4489 10.4688 9.04693C10.4923 9.07379 10.5108 9.11323 10.5373 9.16359ZM4.17727 1.80484C4.20378 1.8552 4.22145 1.88877 4.23913 1.92234C5.54221 4.21027 6.84529 6.49821 8.14762 8.78027C8.23376 8.93051 8.32063 9.08661 8.41337 9.23601C8.4303 9.26371 8.48758 9.29226 8.51325 9.28303C8.64666 9.22433 8.77934 9.15975 8.92521 9.0935C7.4933 6.58314 6.06948 4.08371 4.64567 1.58427C4.47413 1.65974 4.329 1.73187 4.17727 1.80484Z" fill="#413C39"/>
<path d="M14.7788 11.1101C12.6091 12.1337 10.4457 13.1565 8.27603 14.1801C7.80641 13.1542 8.06503 11.3046 9.86411 10.288C11.6814 9.26341 13.8309 9.84774 14.7788 11.1101ZM9.4151 13.1615C9.40862 12.4539 9.57745 11.8155 10.0554 11.2407C9.85762 11.1458 9.68016 11.0598 9.49569 10.9689C9.09695 11.5622 8.87483 12.1846 8.85039 12.8504C8.84694 12.8737 8.86454 12.9114 8.88488 12.9203C9.05603 13.0071 9.22504 13.0771 9.4151 13.1615Z" fill="#413C39"/>
<path d="M6.32426 18.7028C6.38901 19.2525 6.00314 19.7447 5.45345 19.8095C4.91848 19.8724 4.42068 19.4822 4.35781 18.9472C4.29307 18.3976 4.67893 17.9053 5.22862 17.8405C5.7685 17.777 6.26139 18.1678 6.32426 18.7028Z" fill="#413C39"/>
<path d="M18.0898 8.97653C18.1587 9.51927 17.7743 10.0153 17.2323 10.0902C16.6896 10.159 16.1935 9.77466 16.1247 9.23192C16.0558 8.68918 16.4402 8.19312 16.983 8.12428C17.5257 8.05544 18.021 8.4338 18.0898 8.97653Z" fill="#413C39"/>
<path d="M3.61619 17.0456C3.34317 17.0802 3.0975 16.893 3.0627 16.6187C3.02336 16.345 3.21395 16.0979 3.48242 16.0638C3.75942 16.024 4.01022 16.2152 4.04501 16.4895C4.07467 16.7598 3.88467 17.0115 3.61619 17.0456Z" fill="#413C39"/>
</g>
<defs>
<clipPath id="clip0_444_2309">
<rect width="24" height="24" fill="white" transform="translate(0.484375 0.0565796)"/>
</clipPath>
</defs>
</svg>
