<svg width="50" height="50" viewBox="0 0 50 50" fill="none" xmlns="http://www.w3.org/2000/svg">
<g clip-path="url(#clip0_191_2024)">
<path d="M41.5537 33.8339C40.5283 34.7448 39.54 35.6382 38.5389 36.5332C37.0932 35.4749 35.6766 34.4386 34.2599 33.4022C34.2486 33.4165 34.2357 33.4181 34.2244 33.4323C34.3709 33.657 34.5062 33.8958 34.6527 34.1205C35.3853 35.2436 36.105 36.3683 36.8505 37.4898C36.9632 37.6547 36.9469 37.7336 36.779 37.8573C35.4342 38.8343 34.0394 39.728 32.5834 40.5527C32.535 40.5845 32.485 40.6036 32.4107 40.6386C30.8305 38.8294 29.2648 37.0311 27.699 35.2329C27.6877 35.2471 27.6619 35.2504 27.6506 35.2646C28.4529 37.4541 29.2552 39.6436 30.0735 41.8567C28.3934 42.6714 26.6843 43.3618 24.914 43.9832C23.6988 41.7436 22.4966 39.5025 21.2959 37.2739C21.2701 37.2771 21.2572 37.2788 21.2314 37.2821C21.2458 37.3954 21.2586 37.4962 21.2729 37.6096C21.5653 39.915 21.8578 42.2204 22.1615 44.5115C22.1934 44.7635 22.1546 44.8708 21.8739 44.932C20.6766 45.2119 19.4826 45.5169 18.287 45.8094C18.2353 45.8159 18.1837 45.8225 18.1063 45.8323C18.1082 45.5377 18.1118 45.2556 18.1299 44.9845C18.2517 41.6025 17.9057 38.2543 17.2112 34.9503C16.9113 33.5163 16.5484 32.1031 16.2098 30.674C16.1777 30.5244 16.2085 30.4565 16.344 30.3881C19.7061 28.6688 23.0666 26.937 26.44 25.2034C27.4746 24.6754 28.5092 24.1473 29.5293 23.6083C29.6891 23.5241 29.7827 23.5378 29.9051 23.6759C32.4486 26.5662 35.2134 29.2364 38.3029 31.571C39.2312 32.2725 40.2047 32.917 41.1685 33.5884C41.2539 33.6416 41.3684 33.7166 41.5537 33.8339Z" fill="#C18050"/>
<path d="M20.9435 18.9729C19.3568 19.6841 17.7975 20.3917 16.2245 21.101C16.1724 21.0206 16.1203 20.9402 16.0681 20.8597C13.1893 15.7907 10.3104 10.7217 7.42992 5.64041C7.21365 5.25748 6.98208 4.86406 6.76581 4.48113C6.18134 3.39879 6.64213 2.18387 7.8531 1.59503C8.41966 1.32421 8.99552 1.12681 9.63305 1.19517C10.5121 1.29507 11.1503 1.69909 11.5476 2.40725C12.7378 4.51949 13.9418 6.62998 15.1321 8.74222C17.0217 12.0714 18.9113 15.4007 20.8009 18.7299C20.8499 18.7859 20.8883 18.868 20.9435 18.9729ZM7.69353 3.64221C7.74876 3.74713 7.78558 3.81707 7.8224 3.88701C10.5371 8.65354 13.2519 13.4201 15.9651 18.1744C16.1445 18.4874 16.3255 18.8126 16.5187 19.1238C16.554 19.1815 16.6734 19.241 16.7268 19.2218C17.0048 19.0995 17.2812 18.9649 17.5851 18.8269C14.6019 13.597 11.6356 8.38985 8.66936 3.18269C8.31199 3.33993 8.00964 3.4902 7.69353 3.64221Z" fill="#C18050"/>
<path d="M29.7801 23.0281C25.2599 25.1606 20.7528 27.2915 16.2326 29.4241C15.2542 27.2867 15.793 23.4335 19.5411 21.3155C23.3271 19.1809 27.8052 20.3982 29.7801 23.0281ZM18.6057 27.302C18.5922 25.8278 18.9439 24.4978 19.9397 23.3003C19.5276 23.1026 19.1579 22.9233 18.7736 22.734C17.9429 23.9701 17.4801 25.2667 17.4292 26.6538C17.422 26.7023 17.4587 26.781 17.5011 26.7994C17.8576 26.9803 18.2097 27.1261 18.6057 27.302Z" fill="#C18050"/>
<path d="M12.1665 38.8463C12.3014 39.9915 11.4975 41.017 10.3523 41.1519C9.23779 41.2829 8.20072 40.4701 8.06973 39.3556C7.93485 38.2104 8.73875 37.1848 9.88392 37.0499C11.0087 36.9176 12.0355 37.7318 12.1665 38.8463Z" fill="#C18050"/>
<path d="M36.678 18.5832C36.8215 19.714 36.0207 20.7474 34.8915 20.9034C33.7608 21.0468 32.7274 20.246 32.584 19.1153C32.4405 17.9846 33.2413 16.9511 34.372 16.8077C35.5028 16.6643 36.5346 17.4525 36.678 18.5832Z" fill="#C18050"/>
<path d="M6.52446 35.3937C5.95566 35.4658 5.44384 35.0759 5.37136 34.5045C5.28939 33.9342 5.68645 33.4194 6.24577 33.3484C6.82284 33.2655 7.34535 33.6638 7.41783 34.2352C7.47963 34.7983 7.08378 35.3227 6.52446 35.3937Z" fill="#C18050"/>
</g>
<defs>
<clipPath id="clip0_191_2024">
<rect width="50" height="50" fill="white"/>
</clipPath>
</defs>
</svg>
