<svg width="59" height="59" viewBox="0 0 59 59" fill="none" xmlns="http://www.w3.org/2000/svg">
<rect x="0.5" y="0.5" width="58" height="58" rx="29" fill="#C18050"/>
<path d="M19.9142 34.5632L17.2817 28.1004L18.5216 28.0923L20.7591 33.7777L20.3991 33.78L22.4615 28.0663L23.7515 28.0578L25.889 33.7439L25.529 33.7463L27.6914 28.0319L28.9114 28.0239L26.3941 34.5206L25.0541 34.5294L22.9467 28.8532L23.2867 28.8509L21.2442 34.5545L19.9142 34.5632ZM30.0326 28.0165L31.1726 28.009L31.2152 34.4889L30.0753 34.4964L30.0326 28.0165ZM38.5486 27.9605L38.5551 28.9405L34.0152 28.9703L34.0275 30.8503L37.7474 30.8258L37.7536 31.7658L34.0337 31.7903L34.0513 34.4702L32.9114 34.4777L32.8687 27.9979L38.5486 27.9605ZM39.7664 27.9525L40.9064 27.945L40.949 34.4248L39.809 34.4323L39.7664 27.9525Z" fill="white"/>
<rect x="0.5" y="0.5" width="58" height="58" rx="29" stroke="white"/>
</svg>
