<svg width="50" height="50" viewBox="0 0 50 50" fill="none" xmlns="http://www.w3.org/2000/svg">
<path d="M0.0212034 36.2791C0.0212034 34.057 0.0494745 31.8349 0.0212034 29.5863C-0.00706778 27.8933 1.54784 26.9145 2.9614 26.9674C4.31842 27.0203 5.50581 28.1049 5.53408 29.3747C5.56235 30.8032 5.56234 32.2317 5.56234 33.6602C5.56234 34.9035 6.43875 35.75 7.73922 35.75C14.3829 35.75 21.0267 35.75 27.6704 35.75C28.9426 35.75 29.9321 34.8242 29.9038 33.6602C29.8473 32.311 29.8755 30.9354 29.8755 29.5863C29.8755 28.2107 30.9781 27.0996 32.4199 26.9938C33.89 26.888 35.1622 27.8403 35.3601 29.2159C35.3884 29.4011 35.4167 29.5863 35.4167 29.7715C35.4167 34.1628 35.4167 38.5806 35.4167 42.9719C35.4167 43.8185 35.134 44.5327 34.4272 45.0882C33.5508 45.776 32.5613 45.8819 31.5435 45.485C30.5823 45.1147 30.0734 44.4269 29.9321 43.501C29.9038 43.2629 29.819 43.1836 29.5363 43.1836C28.8295 43.21 28.0944 43.21 27.3877 43.21C20.3482 43.21 13.3086 43.21 6.29739 43.21C5.61889 43.21 5.61889 43.21 5.47753 43.792C5.16655 44.9824 3.92262 45.8025 2.53733 45.6967C1.20859 45.5909 0.134283 44.6385 0.0777405 43.3952C0.0211982 41.9138 0.0494745 40.4324 0.0212034 38.951C-0.00706778 38.0515 -0.00706778 37.1521 0.0212034 36.2791Z" fill="#C18050"/>
<path d="M17.7831 33.1499C15.2137 33.1499 12.6443 33.1826 10.045 33.1499C9.47732 33.1499 8.87978 33.0518 8.34199 32.823C6.99753 32.2017 6.31036 30.9919 6.28048 29.4225C6.25061 25.7604 6.31036 22.0983 6.25061 18.4362C6.22073 16.736 7.29631 14.8395 9.35781 14.5453C9.68646 14.5126 10.0151 14.4799 10.3437 14.4799C15.3631 14.4799 20.4123 14.4472 25.4316 14.4799C26.8059 14.4799 28.001 15.003 28.7181 16.409C29.0467 17.0302 29.1662 17.6842 29.1662 18.4035C29.1662 22.0656 29.1065 25.7604 29.1662 29.4225C29.1961 31.2862 27.7321 33.1499 25.82 33.1826C24.1469 33.2153 22.5037 33.2153 20.8306 33.2153C19.8446 33.1826 18.8288 33.1826 17.7831 33.1499Z" fill="#C18050"/>
<path d="M41.3143 41.7912C41.8162 41.7912 42.2917 41.7912 42.7408 41.7912C43.6654 41.8188 44.2466 42.3991 44.2466 43.3664C44.2466 44.0572 44.2466 44.7481 44.2731 45.439C44.2731 45.6601 44.1938 45.7153 44.0089 45.7153C41.7898 45.7153 39.5707 45.7153 37.378 45.7153C37.1138 45.7153 37.0346 45.6324 37.0346 45.3561C37.061 44.7205 37.061 44.0849 37.061 43.4216C37.0874 42.4268 37.6422 41.8464 38.5932 41.8188C39.0423 41.8188 39.4914 41.8188 39.9405 41.8188C39.9405 33.2243 39.9405 24.6851 39.9405 16.0906C39.5971 16.0906 39.2537 16.0906 38.9102 16.0906C37.5629 16.0906 36.242 16.0906 34.8947 16.063C34.657 16.063 34.3928 16.0354 34.155 15.9525C33.4681 15.7037 33.1776 14.9852 33.4153 14.2114C33.6531 13.4377 33.9437 12.6915 34.2343 11.9177C35.0004 9.78984 35.7929 7.63432 36.559 5.50642C36.6119 5.34061 36.6911 5.20244 36.744 5.03663C36.9817 4.37339 37.4837 4.0694 38.1177 4.0694C39.8349 4.04177 41.5256 4.04177 43.2428 4.0694C43.8768 4.0694 44.2995 4.51157 44.5372 5.11954C45.0392 6.47365 45.5411 7.8554 46.0166 9.23715C46.5978 10.84 47.2054 12.4704 47.7866 14.0733C48.0508 14.8471 47.9187 15.455 47.3375 15.8143C47.0734 15.9801 46.7035 16.063 46.3865 16.0906C44.8807 16.1183 43.3749 16.1183 41.8954 16.1183C41.3143 16.1183 41.3143 16.1183 41.3143 16.6986C41.3143 24.9062 41.3143 33.0861 41.2878 41.2937C41.3143 41.4043 41.3143 41.5701 41.3143 41.7912Z" fill="#C18050"/>
</svg>
