<svg width="78" height="66" viewBox="0 0 78 66" fill="none" xmlns="http://www.w3.org/2000/svg">
<g clip-path="url(#clip0_173_1868)">
<path d="M71.0611 17.8035L71.3076 22.518C71.3285 22.8112 71.0889 23.0624 70.7973 23.0624H62.5379C62.2532 23.0624 62.0206 22.8356 62.0206 22.5494V16.0133C62.0206 14.7082 60.9617 13.6508 59.6632 13.6508H43.0124C41.714 13.6508 40.662 14.7082 40.662 16.0203V23.3625H38.5824V20.6476H38.5963V16.0203C38.5963 14.7082 37.5374 13.6508 36.2389 13.6508H19.5882C18.2897 13.6508 17.2378 14.7082 17.2378 16.0133V22.5494C17.2378 22.8356 17.0052 23.0624 16.7205 23.0624H8.46105C8.16247 23.0624 7.92986 22.8146 7.94375 22.518L8.19025 17.8035V6.0015C7.54102 5.42222 7.13135 4.57075 7.13135 3.62505C7.13482 1.74064 8.75962 0.236601 10.6795 0.456449C12.103 0.623952 13.2626 1.76158 13.4466 3.19234C13.5924 4.30553 13.1619 5.33498 12.4189 6.0015V11.0475C14.4326 9.29574 17.2343 7.56487 20.9422 6.76574C20.97 6.75876 20.9943 6.75876 21.022 6.75876L37.8325 6.29812H41.4224L58.2328 6.75876C58.2606 6.75876 58.2918 6.75876 58.3127 6.76574C62.0206 7.56487 64.8223 9.29574 66.8429 11.0475V6.0015C66.093 5.33498 65.6625 4.30553 65.8083 3.19234C65.9993 1.76158 67.1519 0.623952 68.5823 0.456449C70.5022 0.236601 72.127 1.74064 72.127 3.62505C72.127 4.57075 71.7104 5.42222 71.0611 6.0015V17.8035Z" fill="#D0DAD1"/>
<path d="M5.09185 27.0164C6.32781 23.429 10.0183 22.0576 13.5318 23.1778C16.7536 24.099 19.3019 26.3429 22.2495 27.655C28.0821 30.3734 34.6994 30.1396 41.0563 30.3595C34.6195 31.5425 27.6829 32.0729 21.5239 29.2393C18.4062 27.826 15.9725 25.5577 13.1117 24.4655C10.0149 23.2127 6.90066 24.0781 5.08838 27.0129L5.09185 27.0164Z" fill="#D0DAD1"/>
<path d="M72.9078 25.1598C69.3596 21.6352 64.1519 23.6313 60.2357 25.4389C52.997 28.9739 44.6716 28.6773 36.9399 27.4001C44.6335 26.9534 52.4624 27.1279 59.6039 23.9139C62.5132 22.7344 65.8392 21.6457 69.0333 22.4378C70.5887 22.8287 72.1163 23.7395 72.9078 25.1598Z" fill="#D0DAD1"/>
</g>
<path d="M11.6072 47.4015C11.4861 48.2492 11.1955 48.9819 10.7353 49.5995C10.2751 50.2171 9.68782 50.6954 8.97334 51.0345C8.27098 51.3614 7.48384 51.5249 6.61194 51.5249C5.80058 51.5249 5.04978 51.3856 4.35952 51.1071C3.66926 50.8165 3.06377 50.4048 2.54305 49.8719C2.03444 49.3391 1.63482 48.6973 1.34419 47.9465C1.05355 47.1957 0.908233 46.3601 0.908233 45.4397C0.908233 44.5073 1.05355 43.6717 1.34419 42.933C1.63482 42.1822 2.03444 41.5404 2.54305 41.0076C3.06377 40.4747 3.66926 40.0691 4.35952 39.7905C5.04978 39.4999 5.80058 39.3546 6.61194 39.3546C7.49595 39.3546 8.28914 39.5241 8.99151 39.8632C9.70599 40.1902 10.2933 40.6685 10.7535 41.2982C11.2137 41.9158 11.5043 42.6545 11.6254 43.5143H10.2812C10.1117 42.9088 9.84525 42.4002 9.48195 41.9885C9.13077 41.5767 8.70693 41.2619 8.21043 41.0439C7.71393 40.8259 7.1811 40.7169 6.61194 40.7169C5.87324 40.7169 5.17693 40.8986 4.523 41.2619C3.88118 41.6252 3.36046 42.158 2.96084 42.8604C2.56122 43.5627 2.36141 44.4225 2.36141 45.4397C2.36141 46.457 2.56122 47.3168 2.96084 48.0191C3.36046 48.7215 3.88118 49.2543 4.523 49.6176C5.17693 49.9809 5.87324 50.1626 6.61194 50.1626C7.1811 50.1626 7.70787 50.0596 8.19226 49.8538C8.68876 49.6358 9.11261 49.3209 9.46379 48.9092C9.82708 48.4975 10.0935 47.9949 10.263 47.4015H11.6072ZM17.6639 51.5249C16.8888 51.5249 16.1622 51.3372 15.4841 50.9618C14.806 50.5864 14.255 50.0475 13.8311 49.3451C13.4194 48.6307 13.2135 47.789 13.2135 46.8203C13.2135 45.8515 13.4194 45.0159 13.8311 44.3135C14.255 43.5991 14.806 43.0481 15.4841 42.6606C16.1622 42.273 16.8888 42.0793 17.6639 42.0793C18.4389 42.0793 19.1594 42.273 19.8255 42.6606C20.5036 43.0481 21.0485 43.5991 21.4603 44.3135C21.872 45.0159 22.0779 45.8515 22.0779 46.8203C22.0779 47.789 21.872 48.6307 21.4603 49.3451C21.0485 50.0475 20.5036 50.5864 19.8255 50.9618C19.1594 51.3372 18.4389 51.5249 17.6639 51.5249ZM17.6639 50.1626C18.1725 50.1626 18.6508 50.0354 19.0989 49.7811C19.5469 49.5268 19.9102 49.1514 20.1887 48.6549C20.4794 48.1463 20.6247 47.5347 20.6247 46.8203C20.6247 46.1058 20.4794 45.5003 20.1887 45.0038C19.9102 44.4952 19.5469 44.1077 19.0989 43.8413C18.6508 43.5748 18.1725 43.4416 17.6639 43.4416C17.1552 43.4416 16.6709 43.5748 16.2107 43.8413C15.7626 44.0956 15.3933 44.477 15.1026 44.9856C14.812 45.4821 14.6667 46.0937 14.6667 46.8203C14.6667 47.5347 14.806 48.1463 15.0845 48.6549C15.3751 49.1514 15.7505 49.5268 16.2107 49.7811C16.6709 50.0354 17.1552 50.1626 17.6639 50.1626ZM23.922 42.2609H25.3752V51.3433H23.922V42.2609ZM28.4995 42.0793C28.9839 42.0793 29.4198 42.1519 29.8074 42.2973C30.1949 42.4426 30.5218 42.6545 30.7883 42.933C31.0547 43.2115 31.2605 43.5506 31.4059 43.9502C31.5512 44.3378 31.6238 44.7798 31.6238 45.2763V51.3433H30.1707V45.6396C30.1707 44.9372 30.0072 44.4104 29.6802 44.0592C29.3532 43.708 28.8628 43.5325 28.2089 43.5325C27.7124 43.5325 27.2522 43.6596 26.8284 43.9139C26.4045 44.1682 26.0533 44.5194 25.7748 44.9675C25.5084 45.4034 25.3449 45.912 25.2844 46.4933L25.2662 45.4397C25.3267 44.9311 25.4478 44.471 25.6295 44.0592C25.8232 43.6475 26.0594 43.2963 26.3379 43.0057C26.6285 42.7029 26.9555 42.4729 27.3188 42.3154C27.6942 42.158 28.0878 42.0793 28.4995 42.0793ZM34.6028 42.0793C35.0872 42.0793 35.5232 42.1519 35.9107 42.2973C36.2982 42.4426 36.6252 42.6545 36.8916 42.933C37.158 43.2115 37.3639 43.5506 37.5092 43.9502C37.6545 44.3378 37.7272 44.7798 37.7272 45.2763V51.3433H36.274V45.6396C36.274 44.9372 36.1105 44.4104 35.7835 44.0592C35.4566 43.708 34.9661 43.5325 34.3122 43.5325C33.8157 43.5325 33.3555 43.6596 32.9317 43.9139C32.5078 44.1682 32.1567 44.5194 31.8781 44.9675C31.6117 45.4034 31.4482 45.912 31.3877 46.4933L31.3695 45.4397C31.4301 44.9311 31.5512 44.471 31.7328 44.0592C31.9266 43.6475 32.1627 43.2963 32.4412 43.0057C32.7319 42.7029 33.0588 42.4729 33.4221 42.3154C33.7975 42.158 34.1911 42.0793 34.6028 42.0793ZM39.4464 42.2609H44.7868V43.6233H39.4464V42.2609ZM44.1511 38.628H44.9866V40.0812H44.1511C43.8483 40.0691 43.5698 40.1114 43.3155 40.2083C43.0733 40.3052 42.8795 40.4747 42.7342 40.7169C42.5889 40.947 42.5162 41.28 42.5162 41.716V51.3433H41.0631V41.716C41.0631 40.9894 41.1902 40.4021 41.4445 39.954C41.7109 39.4938 42.0742 39.1608 42.5344 38.955C43.0067 38.737 43.5456 38.628 44.1511 38.628ZM50.1438 51.5249C49.3688 51.5249 48.6422 51.3372 47.9641 50.9618C47.2859 50.5864 46.7349 50.0475 46.3111 49.3451C45.8994 48.6307 45.6935 47.789 45.6935 46.8203C45.6935 45.8515 45.8994 45.0159 46.3111 44.3135C46.7349 43.5991 47.2859 43.0481 47.9641 42.6606C48.6422 42.273 49.3688 42.0793 50.1438 42.0793C50.9189 42.0793 51.6394 42.273 52.3054 42.6606C52.9836 43.0481 53.5285 43.5991 53.9403 44.3135C54.352 45.0159 54.5578 45.8515 54.5578 46.8203C54.5578 47.789 54.352 48.6307 53.9403 49.3451C53.5285 50.0475 52.9836 50.5864 52.3054 50.9618C51.6394 51.3372 50.9189 51.5249 50.1438 51.5249ZM50.1438 50.1626C50.6524 50.1626 51.1308 50.0354 51.5788 49.7811C52.0269 49.5268 52.3902 49.1514 52.6687 48.6549C52.9594 48.1463 53.1047 47.5347 53.1047 46.8203C53.1047 46.1058 52.9594 45.5003 52.6687 45.0038C52.3902 44.4952 52.0269 44.1077 51.5788 43.8413C51.1308 43.5748 50.6524 43.4416 50.1438 43.4416C49.6352 43.4416 49.1508 43.5748 48.6907 43.8413C48.2426 44.0956 47.8733 44.477 47.5826 44.9856C47.292 45.4821 47.1467 46.0937 47.1467 46.8203C47.1467 47.5347 47.2859 48.1463 47.5645 48.6549C47.8551 49.1514 48.2305 49.5268 48.6907 49.7811C49.1508 50.0354 49.6352 50.1626 50.1438 50.1626ZM56.402 42.2609H57.8552V51.3433H56.402V42.2609ZM60.7615 43.6233C60.1439 43.6233 59.6232 43.7807 59.1993 44.0956C58.7876 44.3983 58.4607 44.7737 58.2185 45.2218C57.9884 45.6577 57.837 46.0816 57.7643 46.4933L57.7462 45.4397C57.7462 45.3308 57.7704 45.1491 57.8188 44.8948C57.8673 44.6405 57.9581 44.3559 58.0913 44.0411C58.2245 43.7141 58.4001 43.4053 58.6181 43.1147C58.8482 42.8119 59.1388 42.5637 59.49 42.3699C59.8412 42.1762 60.265 42.0793 60.7615 42.0793V43.6233ZM61.762 42.2609H67.1024V43.6233H61.762V42.2609ZM63.7056 39.8995H65.1588V51.3433H63.7056V39.8995ZM72.075 51.5249C71.3605 51.5249 70.7005 51.3251 70.095 50.9255C69.5016 50.5137 69.0233 49.9567 68.66 49.2543C68.3088 48.5398 68.1332 47.7285 68.1332 46.8203C68.1332 45.912 68.3149 45.1007 68.6782 44.3862C69.0415 43.6717 69.5319 43.1086 70.1495 42.6969C70.7792 42.2851 71.4816 42.0793 72.2566 42.0793C73.1043 42.0793 73.7461 42.2973 74.1821 42.7332C74.6301 43.1571 74.9329 43.7262 75.0903 44.4407C75.2598 45.1552 75.3446 45.9484 75.3446 46.8203C75.3446 47.2804 75.2962 47.783 75.1993 48.3279C75.1024 48.8608 74.9329 49.3754 74.6907 49.8719C74.4606 50.3563 74.1336 50.7559 73.7098 51.0708C73.286 51.3735 72.741 51.5249 72.075 51.5249ZM72.4383 50.1444C73.0559 50.1444 73.5645 49.993 73.9641 49.6903C74.3758 49.3875 74.6786 48.9879 74.8723 48.4914C75.0661 47.9828 75.163 47.4257 75.163 46.8203C75.163 46.1542 75.06 45.573 74.8542 45.0765C74.6604 44.5678 74.3577 44.1743 73.9459 43.8957C73.5463 43.6051 73.0438 43.4598 72.4383 43.4598C71.53 43.4598 70.8277 43.7807 70.3312 44.4225C69.8347 45.0522 69.5864 45.8515 69.5864 46.8203C69.5864 47.4621 69.7075 48.0373 69.9497 48.5459C70.204 49.0424 70.5431 49.436 70.9669 49.7266C71.4029 50.0051 71.8933 50.1444 72.4383 50.1444ZM75.163 42.2609H76.6161V51.3433H75.2901C75.2901 51.3433 75.278 51.2343 75.2538 51.0163C75.2417 50.7983 75.2235 50.544 75.1993 50.2534C75.1751 49.9627 75.163 49.7206 75.163 49.5268V42.2609Z" fill="#D0DAD1"/>
<path d="M11.493 62.1597H11.0449V58.3269H11.493V59.9739H13.4366V58.3269H13.8847V62.1597H13.4366V60.3553H11.493V62.1597ZM16.3818 62.2323C15.8288 62.2323 15.3989 62.0043 15.0921 61.5481C14.854 61.1929 14.7349 60.761 14.7349 60.2524C14.7349 59.663 14.8923 59.1786 15.2072 58.7992C15.5059 58.4359 15.8974 58.2543 16.3818 58.2543C16.9348 58.2543 17.3647 58.4844 17.6715 58.9445C17.9097 59.3078 18.0287 59.7438 18.0287 60.2524C18.0287 60.8417 17.8713 61.3241 17.5565 61.6995C17.2577 62.0547 16.8662 62.2323 16.3818 62.2323ZM15.2132 60.2524C15.2132 60.761 15.3242 61.1586 15.5462 61.4452C15.7521 61.7076 16.0306 61.8388 16.3818 61.8388C16.7855 61.8388 17.0902 61.6692 17.2961 61.3301C17.4656 61.0516 17.5504 60.6924 17.5504 60.2524C17.5504 59.7438 17.4394 59.3441 17.2174 59.0535C17.0115 58.779 16.733 58.6418 16.3818 58.6418C15.9822 58.6418 15.6774 58.8174 15.4675 59.1686C15.298 59.4511 15.2132 59.8124 15.2132 60.2524ZM18.2673 58.7084V58.3269H21.1494V58.7084H19.8839V62.1597H19.4359V58.7084H18.2673ZM21.8237 58.3269H24.0761V58.7084H22.2718V59.9739H23.7916V60.3553H22.2718V61.7782H24.1549V62.1597H21.8237V58.3269ZM25.035 62.1597V58.3269H25.4831V61.7782H26.9908V62.1597H25.035ZM31.3019 60.1676H31.7379V60.4038C31.7379 60.9043 31.6612 61.2716 31.5078 61.5057L32.083 62.1597H31.5804L31.2898 61.8327C31.0597 62.0991 30.7388 62.2323 30.3271 62.2323C29.9638 62.2323 29.6671 62.1173 29.437 61.8872C29.2392 61.6854 29.1403 61.4391 29.1403 61.1485C29.1403 60.9386 29.1948 60.7368 29.3038 60.543C29.4168 60.3493 29.5662 60.1938 29.7518 60.0768L29.6731 59.986C29.3825 59.663 29.2372 59.3724 29.2372 59.1141C29.2372 58.8598 29.326 58.6539 29.5036 58.4965C29.6812 58.335 29.9133 58.2543 30.1999 58.2543C30.4704 58.2543 30.7408 58.3471 31.0113 58.5328L30.8357 58.8113C30.6217 58.6983 30.4078 58.6418 30.1939 58.6418C30.0364 58.6418 29.9093 58.6842 29.8124 58.7689C29.7196 58.8537 29.6731 58.9627 29.6731 59.0959C29.6731 59.3058 29.8164 59.5742 30.103 59.9012L31.2171 61.1727C31.2736 61.0557 31.3019 60.8296 31.3019 60.4946V60.1676ZM29.9819 60.325C29.877 60.3977 29.7882 60.5047 29.7155 60.6459C29.6429 60.7872 29.6065 60.9265 29.6065 61.0637C29.6065 61.2979 29.6752 61.4856 29.8124 61.6268C29.9496 61.7681 30.1333 61.8388 30.3634 61.8388C30.6338 61.8388 30.8498 61.7338 31.0113 61.5239L29.9819 60.325ZM35.0909 58.3269H35.5572L36.9316 62.1597H36.4714L36.1626 61.2635H34.4976L34.1827 62.1597H33.7165L35.0909 58.3269ZM35.321 58.8295L34.6187 60.8881H36.0294L35.321 58.8295ZM37.5646 62.1597V58.3269C37.9239 58.2785 38.2347 58.2543 38.4971 58.2543C39.4013 58.2543 39.8534 58.6418 39.8534 59.4168C39.8534 59.8084 39.7262 60.1091 39.4719 60.319C39.2418 60.5047 38.933 60.5975 38.5455 60.5975C38.372 60.5975 38.1943 60.5854 38.0127 60.5612V62.1597H37.5646ZM38.0127 58.6539V60.1979C38.158 60.2221 38.3276 60.2342 38.5213 60.2342C39.0945 60.2342 39.3811 59.9617 39.3811 59.4168C39.3811 58.8799 39.0864 58.6115 38.4971 58.6115C38.3114 58.6115 38.1499 58.6256 38.0127 58.6539ZM40.6985 62.1597V58.3269C41.0578 58.2785 41.3686 58.2543 41.631 58.2543C42.5352 58.2543 42.9873 58.6418 42.9873 59.4168C42.9873 59.8084 42.8601 60.1091 42.6058 60.319C42.3757 60.5047 42.0669 60.5975 41.6794 60.5975C41.5058 60.5975 41.3282 60.5854 41.1466 60.5612V62.1597H40.6985ZM41.1466 58.6539V60.1979C41.2919 60.2221 41.4614 60.2342 41.6552 60.2342C42.2284 60.2342 42.515 59.9617 42.515 59.4168C42.515 58.8799 42.2203 58.6115 41.631 58.6115C41.4453 58.6115 41.2838 58.6256 41.1466 58.6539ZM44.3566 58.3269H44.8228L46.1973 62.1597H45.7371L45.4283 61.2635H43.7632L43.4483 62.1597H42.9821L44.3566 58.3269ZM44.5867 58.8295L43.8843 60.8881H45.2951L44.5867 58.8295ZM46.0405 58.7084V58.3269H48.9227V58.7084H47.6572V62.1597H47.2091V58.7084H46.0405ZM50.0693 58.9748V62.1597H49.6212V58.3269H50.1782C50.4527 58.9607 50.7979 59.8931 51.2136 61.1243C51.2984 61.3826 51.365 61.5764 51.4134 61.7056C51.4619 61.5602 51.5043 61.4351 51.5406 61.3301C51.9927 60.0021 52.3661 59.001 52.6608 58.3269H53.2057V62.1597H52.7576V58.9687C52.5477 59.6469 52.1683 60.7105 51.6193 62.1597H51.2136C50.7333 60.981 50.3518 59.9194 50.0693 58.9748ZM54.2741 58.3269H56.5266V58.7084H54.7222V59.9739H56.242V60.3553H54.7222V61.7782H56.6053V62.1597H54.2741V58.3269ZM57.9335 62.1597H57.4855V58.3269H57.8911C58.2585 58.8799 58.8983 59.9214 59.8105 61.4512V58.3269H60.2586V62.1597H59.8408C59.6228 61.8327 59.1788 61.1263 58.5087 60.0405C58.2262 59.5803 58.0344 59.2654 57.9335 59.0959V62.1597ZM60.9531 58.7084V58.3269H63.8352V58.7084H62.5697V62.1597H62.1217V58.7084H60.9531ZM64.2976 61.8448L64.4913 61.5723C64.786 61.7419 65.0988 61.8266 65.4298 61.8266C65.6842 61.8266 65.884 61.7681 66.0293 61.6511C66.1746 61.53 66.2473 61.3604 66.2473 61.1424C66.2473 60.7711 66.003 60.5006 65.5146 60.3311C65.0988 60.1898 64.7981 60.0324 64.6124 59.8588C64.4268 59.6852 64.3339 59.4733 64.3339 59.223C64.3339 58.9243 64.451 58.6842 64.6851 58.5025C64.899 58.337 65.1796 58.2543 65.5267 58.2543C65.9062 58.2543 66.2513 58.3592 66.5621 58.5691L66.3623 58.8416C66.112 58.7084 65.8436 58.6418 65.557 58.6418C65.3229 58.6418 65.1372 58.6922 65 58.7932C64.8627 58.8941 64.7941 59.0313 64.7941 59.2049C64.7941 59.4753 65.004 59.6893 65.4238 59.8467C65.9001 60.0283 66.2331 60.216 66.4228 60.4098C66.6166 60.5995 66.7135 60.8478 66.7135 61.1546C66.7135 61.5057 66.5783 61.7822 66.3078 61.9841C66.0858 62.1496 65.8153 62.2323 65.4965 62.2323C65.0968 62.2323 64.6972 62.1032 64.2976 61.8448Z" fill="#D0DAD1"/>
<defs>
<clipPath id="clip0_173_1868">
<rect width="67.8147" height="30.8799" fill="white" transform="translate(5.09277 0.435791)"/>
</clipPath>
</defs>
</svg>
