<svg width="50" height="50" viewBox="0 0 50 50" fill="none" xmlns="http://www.w3.org/2000/svg">
<rect width="50" height="50" rx="5" fill="#FCE7E5"/>
<path fill-rule="evenodd" clip-rule="evenodd" d="M22 33C22 32.7348 21.8946 32.4804 21.7071 32.2929C21.5196 32.1054 21.2652 32 21 32H16V18H21C21.2652 18 21.5196 17.8946 21.7071 17.7071C21.8946 17.5196 22 17.2652 22 17C22 16.7348 21.8946 16.4804 21.7071 16.2929C21.5196 16.1054 21.2652 16 21 16H16C15.4696 16 14.9609 16.2107 14.5858 16.5858C14.2107 16.9609 14 17.4696 14 18V32C14 32.5304 14.2107 33.0391 14.5858 33.4142C14.9609 33.7893 15.4696 34 16 34H21C21.2652 34 21.5196 33.8946 21.7071 33.7071C21.8946 33.5196 22 33.2652 22 33Z" fill="#AA2419"/>
<path d="M35.714 25.7123C35.8969 25.5264 35.9996 25.2761 36 25.0153V25.0093C35.9995 24.7451 35.8941 24.4919 35.707 24.3053L31.707 20.3053C31.6148 20.2098 31.5044 20.1336 31.3824 20.0812C31.2604 20.0288 31.1292 20.0012 30.9964 20C30.8636 19.9989 30.7319 20.0242 30.609 20.0745C30.4862 20.1247 30.3745 20.199 30.2806 20.2929C30.1867 20.3868 30.1125 20.4984 30.0622 20.6213C30.0119 20.7442 29.9866 20.8759 29.9877 21.0087C29.9889 21.1415 30.0165 21.2727 30.0689 21.3947C30.1213 21.5167 30.1975 21.627 30.293 21.7193L32.586 24.0123H23C22.7348 24.0123 22.4804 24.1176 22.2929 24.3052C22.1054 24.4927 22 24.7471 22 25.0123C22 25.2775 22.1054 25.5319 22.2929 25.7194C22.4804 25.9069 22.7348 26.0123 23 26.0123H32.586L30.293 28.3053C30.1108 28.4939 30.01 28.7465 30.0123 29.0087C30.0146 29.2709 30.1198 29.5217 30.3052 29.7071C30.4906 29.8925 30.7414 29.9977 31.0036 30C31.2658 30.0022 31.5184 29.9014 31.707 29.7193L35.707 25.7193L35.714 25.7123Z" fill="#AA2419"/>
</svg>
