<svg width="26" height="26" viewBox="0 0 26 26" fill="none" xmlns="http://www.w3.org/2000/svg">
<path d="M12.7648 13.8291C12.4634 13.8291 12.2106 13.727 12.0063 13.5227C11.8021 13.3185 11.7003 13.066 11.701 12.7653V4.25518C11.701 3.95378 11.8032 3.70095 12.0074 3.49671C12.2117 3.29247 12.4641 3.1907 12.7648 3.19141C13.0662 3.19141 13.319 3.29353 13.5233 3.49777C13.7275 3.70202 13.8293 3.95449 13.8286 4.25518V12.7653C13.8286 13.0667 13.7265 13.3195 13.5222 13.5238C13.318 13.728 13.0655 13.8298 12.7648 13.8291ZM12.7648 22.3392C11.4351 22.3392 10.1894 22.0864 9.0278 21.5807C7.86617 21.0751 6.85559 20.3929 5.99607 19.5341C5.13655 18.6738 4.45432 17.6632 3.94938 16.5023C3.44445 15.3414 3.19163 14.0957 3.19092 12.7653C3.19092 11.542 3.41254 10.3718 3.85577 9.25488C4.29901 8.13792 4.93727 7.12735 5.77055 6.22314C5.96558 6.01039 6.21379 5.90401 6.51519 5.90401C6.81659 5.90401 7.07367 6.01039 7.28642 6.22314C7.48144 6.41817 7.57009 6.66213 7.55236 6.95502C7.53463 7.24791 7.42825 7.50924 7.23323 7.73901C6.6127 8.43046 6.13861 9.2063 5.81097 10.0665C5.48333 10.9268 5.31916 11.8264 5.31845 12.7653C5.31845 14.8397 6.0411 16.5995 7.48641 18.0448C8.93171 19.4901 10.6912 20.2124 12.7648 20.2117C14.8392 20.2117 16.599 19.489 18.0443 18.0437C19.4896 16.5984 20.2119 14.8389 20.2112 12.7653C20.2112 11.8256 20.0427 10.9168 19.7059 10.0389C19.369 9.16091 18.8903 8.37656 18.2698 7.68582C18.0748 7.47307 17.9727 7.22486 17.9634 6.94119C17.9542 6.65752 18.0475 6.41817 18.2432 6.22314C18.456 6.01039 18.713 5.90401 19.0144 5.90401C19.3158 5.90401 19.5641 6.01039 19.7591 6.22314C20.5924 7.12735 21.2306 8.13792 21.6739 9.25488C22.1171 10.3718 22.3387 11.542 22.3387 12.7653C22.3387 14.095 22.0859 15.3407 21.5802 16.5023C21.0746 17.664 20.3924 18.6745 19.5336 19.5341C18.6733 20.3936 17.6627 21.0762 16.5018 21.5818C15.3409 22.0874 14.0952 22.3399 12.7648 22.3392Z" fill="#FF0000"/>
</svg>
