<svg width="16" height="16" viewBox="0 0 16 16" fill="none" xmlns="http://www.w3.org/2000/svg">
<path fill-rule="evenodd" clip-rule="evenodd" d="M11.1133 8.75336C12.0266 9.37336 12.6666 10.2134 12.6666 11.3334V13.3334H15.3333V11.3334C15.3333 9.88002 12.9533 9.02002 11.1133 8.75336Z" fill="#413C39"/>
<path d="M6.00016 8.00002C7.47292 8.00002 8.66683 6.80611 8.66683 5.33335C8.66683 3.86059 7.47292 2.66669 6.00016 2.66669C4.5274 2.66669 3.3335 3.86059 3.3335 5.33335C3.3335 6.80611 4.5274 8.00002 6.00016 8.00002Z" fill="#413C39"/>
<path fill-rule="evenodd" clip-rule="evenodd" d="M9.99984 8.00002C11.4732 8.00002 12.6665 6.80669 12.6665 5.33335C12.6665 3.86002 11.4732 2.66669 9.99984 2.66669C9.6865 2.66669 9.39317 2.73335 9.11317 2.82669C9.68685 3.53616 9.99982 4.42096 9.99982 5.33335C9.99982 6.24575 9.68685 7.13054 9.11317 7.84002C9.39317 7.93335 9.6865 8.00002 9.99984 8.00002ZM5.99984 8.66669C4.21984 8.66669 0.666504 9.56002 0.666504 11.3334V13.3334H11.3332V11.3334C11.3332 9.56002 7.77984 8.66669 5.99984 8.66669Z" fill="#413C39"/>
</svg>
