<svg width="33" height="33" viewBox="0 0 33 33" fill="none" xmlns="http://www.w3.org/2000/svg">
<path d="M14.8785 23.2708C14.8785 23.2708 13.753 23.2708 13.753 22.1232C13.753 20.9756 14.8785 17.5329 19.3804 17.5329C23.8824 17.5329 25.0079 20.9756 25.0079 22.1232C25.0079 23.2708 23.8824 23.2708 23.8824 23.2708H14.8785ZM19.3804 16.3854C20.2759 16.3854 21.1348 16.0227 21.768 15.377C22.4012 14.7314 22.7569 13.8557 22.7569 12.9427C22.7569 12.0296 22.4012 11.154 21.768 10.5083C21.1348 9.86271 20.2759 9.5 19.3804 9.5C18.4849 9.5 17.6261 9.86271 16.9929 10.5083C16.3597 11.154 16.004 12.0296 16.004 12.9427C16.004 13.8557 16.3597 14.7314 16.9929 15.377C17.6261 16.0227 18.4849 16.3854 19.3804 16.3854ZM12.8706 23.2708C12.7037 22.9125 12.6205 22.5197 12.6275 22.1232C12.6275 20.5682 13.3928 18.9674 14.8064 17.8543C14.1008 17.6326 13.3657 17.5242 12.6275 17.5329C8.12549 17.5329 7 20.9756 7 22.1232C7 23.2708 8.12549 23.2708 8.12549 23.2708H12.8706ZM12.0647 16.3854C12.811 16.3854 13.5267 16.0831 14.0543 15.5451C14.582 15.0071 14.8785 14.2774 14.8785 13.5165C14.8785 12.7556 14.582 12.0259 14.0543 11.4878C13.5267 10.9498 12.811 10.6476 12.0647 10.6476C11.3185 10.6476 10.6028 10.9498 10.0751 11.4878C9.54743 12.0259 9.25099 12.7556 9.25099 13.5165C9.25099 14.2774 9.54743 15.0071 10.0751 15.5451C10.6028 16.0831 11.3185 16.3854 12.0647 16.3854Z" fill="#413C39"/>
</svg>
