<svg width="40" height="40" viewBox="0 0 40 40" fill="none" xmlns="http://www.w3.org/2000/svg">
<rect width="40" height="40" rx="20" fill="#C18050"/>
<path d="M17.5852 13.277L23.7972 19.4829C23.871 19.5567 23.9233 19.6368 23.9543 19.723C23.9852 19.8091 24.0005 19.9015 24 20C24 20.0985 23.9847 20.1909 23.9543 20.277C23.9238 20.3632 23.8714 20.4433 23.7972 20.5172L17.5853 26.7414C17.4132 26.9138 17.1982 27 16.9401 27C16.682 27 16.4608 26.9077 16.2765 26.723C16.0922 26.5383 16 26.3228 16 26.0765C16 25.8303 16.0922 25.6148 16.2765 25.4301L21.6958 20L16.2765 14.5699C16.1045 14.3975 16.0184 14.185 16.0184 13.9324C16.0184 13.6797 16.1106 13.4613 16.2949 13.277C16.4793 13.0923 16.6943 13 16.9401 13C17.1859 13 17.4009 13.0923 17.5852 13.277Z" fill="#FBFBFB"/>
</svg>
