<svg width="21" height="21" viewBox="0 0 21 21" fill="none" xmlns="http://www.w3.org/2000/svg">
<path d="M16.306 17.6608L11.4747 12.8295C11.0433 13.1746 10.5472 13.4478 9.98642 13.6491C9.42563 13.8504 8.8289 13.951 8.19622 13.951C6.6289 13.951 5.30258 13.4084 4.21724 12.323C3.13133 11.2371 2.58838 9.91052 2.58838 8.34319C2.58838 6.77587 3.13133 5.44926 4.21724 4.36335C5.30258 3.27802 6.6289 2.73535 8.19622 2.73535C9.76354 2.73535 11.0902 3.27802 12.1761 4.36335C13.2614 5.44926 13.8041 6.77587 13.8041 8.34319C13.8041 8.97587 13.7034 9.57261 13.5021 10.1334C13.3008 10.6942 13.0276 11.1903 12.6825 11.6216L17.5354 16.4746C17.6936 16.6327 17.7727 16.8269 17.7727 17.0569C17.7727 17.287 17.6864 17.4883 17.5139 17.6608C17.3557 17.819 17.1544 17.8981 16.9099 17.8981C16.6655 17.8981 16.4642 17.819 16.306 17.6608ZM8.19622 12.2255C9.27465 12.2255 10.1915 11.8482 10.9467 11.0936C11.7013 10.3384 12.0786 9.42163 12.0786 8.34319C12.0786 7.26476 11.7013 6.34795 10.9467 5.59276C10.1915 4.83815 9.27465 4.46084 8.19622 4.46084C7.11779 4.46084 6.20098 4.83815 5.44579 5.59276C4.69118 6.34795 4.31387 7.26476 4.31387 8.34319C4.31387 9.42163 4.69118 10.3384 5.44579 11.0936C6.20098 11.8482 7.11779 12.2255 8.19622 12.2255Z" fill="white"/>
</svg>
