<svg width="33" height="33" viewBox="0 0 33 33" fill="none" xmlns="http://www.w3.org/2000/svg">
<rect x="5.79639" y="9.81433" width="15.0651" height="15.0651" rx="2.17154" fill="#413C39"/>
<path d="M8.20126 8.83437L8.22848 8.8631L8.25518 8.8339L8.5882 8.46983L8.61135 8.44452L8.58776 8.41963L7.80223 7.59045H19.7788L18.9289 8.41858L18.9023 8.4445L18.9284 8.47089L19.2892 8.83496L19.3149 8.86091L19.3411 8.83542L20.8872 7.32891L20.9143 7.30253L20.8872 7.27614L19.3411 5.76964L19.3149 5.74414L19.2892 5.77009L18.9284 6.13416L18.9023 6.16055L18.9289 6.18648L19.7788 7.0146H7.80223L8.58776 6.18543L8.61135 6.16053L8.5882 6.13523L8.25518 5.77116L8.22848 5.74196L8.20126 5.77068L6.77404 7.27719L6.75004 7.30253L6.77404 7.32786L8.20126 8.83437Z" fill="#413C39" stroke="#413C39" stroke-width="0.0736773"/>
<path d="M25.9085 22.4746L25.9372 22.4474L25.908 22.4207L25.5439 22.0876L25.5186 22.0645L25.4937 22.0881L24.6645 22.8736L24.6645 10.897L25.4927 11.747L25.5186 11.7736L25.545 11.7474L25.9091 11.3867L25.935 11.3609L25.9095 11.3348L24.403 9.78862L24.3766 9.76154L24.3502 9.78862L22.8437 11.3348L22.8182 11.3609L22.8442 11.3867L23.2083 11.7474L23.2346 11.7736L23.2606 11.747L24.0887 10.897L24.0887 22.8736L23.2595 22.0881L23.2346 22.0645L23.2093 22.0876L22.8453 22.4207L22.8161 22.4474L22.8448 22.4746L24.3513 23.9018L24.3766 23.9258L24.402 23.9018L25.9085 22.4746Z" fill="#413C39" stroke="#413C39" stroke-width="0.0736773"/>
</svg>
