<svg width="29" height="29" viewBox="0 0 29 29" fill="none" xmlns="http://www.w3.org/2000/svg">
<path fill-rule="evenodd" clip-rule="evenodd" d="M8.00098 18.7245H23.0652V19.6107H8.00098V18.7245Z" fill="#413C39"/>
<path fill-rule="evenodd" clip-rule="evenodd" d="M8.00098 3.36505H18.6345V4.25118H8.00098V3.36505Z" fill="#413C39"/>
<path fill-rule="evenodd" clip-rule="evenodd" d="M4.15832 15.0325C4.15832 17.0884 5.87874 18.7551 8.00098 18.7551L8.00098 19.6108C5.39086 19.6108 3.27495 17.561 3.27495 15.0325C3.27495 12.504 5.39086 10.4542 8.00098 10.4542L8.00098 11.3099C5.87873 11.3099 4.15832 12.9766 4.15832 15.0325Z" fill="#413C39"/>
<path fill-rule="evenodd" clip-rule="evenodd" d="M22.4856 7.79573C22.4856 5.86335 20.7926 4.24244 18.6348 4.24244L18.6348 3.36508C21.2138 3.36508 23.3608 5.3187 23.3608 7.79573C23.3608 10.2728 21.2138 12.2264 18.6348 12.2264L18.6348 11.349C20.7926 11.349 22.4856 9.72811 22.4856 7.79573Z" fill="#413C39"/>
<path d="M8.29688 10.9803V25.038C8.50779 25.8136 10.406 25.8019 11.3288 25.6991C12.1724 25.4875 14.6682 25.7872 15.8107 25.9635C17.6034 26.3865 18.6375 25.7872 18.9304 25.4346L18.6668 10.7599C18.6668 9.66706 17.29 9.54073 16.6016 9.61417C16.004 9.93146 14.8293 10.1871 14.3167 10.2752C12.8755 10.381 11.5192 9.87858 11.0212 9.61417C8.84174 9.33214 8.29688 10.4074 8.29688 10.9803Z" fill="#413C39" stroke="#413C39" stroke-width="0.272943"/>
<path d="M19.0927 12.5217H18.6348L18.8383 23.746C19.6931 23.6057 19.5676 22.6353 19.398 22.1676L19.0927 12.5217Z" fill="#3C3C3C"/>
<circle cx="6.52421" cy="3.95573" r="1.77226" fill="#413C39"/>
<circle cx="23.0652" cy="19.3155" r="1.77226" fill="#413C39"/>
</svg>
