<svg width="50" height="51" viewBox="0 0 50 51" fill="none" xmlns="http://www.w3.org/2000/svg">
<path d="M12.3125 32.0694H15.8542C15.8542 31.1146 15.5071 30.2969 14.8129 29.6163C14.1188 28.9358 13.2853 28.5961 12.3125 28.5972V32.0694ZM18.599 32.0694H21.1667C21.1667 29.6678 20.3031 27.6204 18.5759 25.9271C16.8488 24.2338 14.761 23.3877 12.3125 23.3889V25.9063C14.0538 25.9063 15.5372 26.5069 16.7626 27.7083C17.988 28.9097 18.6001 30.3634 18.599 32.0694ZM23.9115 32.0694H26.4792C26.4792 30.1597 26.1102 28.3582 25.3724 26.6649C24.6345 24.9716 23.6234 23.496 22.339 22.2378C21.0557 20.9797 19.5511 19.989 17.8251 19.2656C16.0991 18.5422 14.2616 18.1806 12.3125 18.1806V20.6979C15.5295 20.6979 18.2672 21.805 20.5256 24.0191C22.784 26.2332 23.9126 28.9167 23.9115 32.0694ZM17.625 40.75V37.2778H10.5417C9.56771 37.2778 8.73365 36.9375 8.03948 36.2569C7.34532 35.5764 6.99882 34.7593 7 33.8056V12.9722C7 12.0174 7.34709 11.1997 8.04125 10.5191C8.73542 9.83854 9.56889 9.49885 10.5417 9.5H38.875C39.849 9.5 40.683 9.84028 41.3772 10.5208C42.0714 11.2014 42.4178 12.0185 42.4167 12.9722V33.8056C42.4167 34.7604 42.0696 35.5781 41.3754 36.2587C40.6812 36.9392 39.8478 37.2789 38.875 37.2778H31.7917V40.75H17.625Z" fill="#C18050"/>
</svg>
