<svg width="52" height="52" viewBox="0 0 52 52" fill="none" xmlns="http://www.w3.org/2000/svg">
<path d="M42.3759 15.4647C42.7225 15.0445 42.669 14.4241 42.2555 14.0694L35.9538 8.66379C35.5289 8.29928 34.8875 8.35461 34.5313 8.78651L33.6111 9.9022C33.2645 10.3224 33.318 10.9428 33.7315 11.2975L40.0332 16.7031C40.4581 17.0676 41.0995 17.0123 41.4557 16.5804L42.3759 15.4647ZM18.2541 11.295C18.6666 10.9414 18.7212 10.323 18.377 9.90256L17.4673 8.79099C17.1121 8.35696 16.4695 8.29987 16.0434 8.66448L9.74624 14.0522C9.33194 14.4067 9.27796 15.0277 9.6249 15.4483L10.5444 16.5632C10.9006 16.995 11.5419 17.0504 11.9668 16.686L18.2541 11.295ZM26 11.719C17.551 11.719 10.7 18.7224 10.7 27.3595C10.7 35.9965 17.534 43 26 43C30.0578 43 33.9494 41.3522 36.8187 38.419C39.688 35.4858 41.3 31.5076 41.3 27.3595C41.3 23.2114 39.688 19.2331 36.8187 16.3C33.9494 13.3668 30.0578 11.719 26 11.719Z" fill="#C18050"/>
<path fill-rule="evenodd" clip-rule="evenodd" d="M25.23 18.7745C25.843 18.7745 26.34 19.2758 26.34 19.8942V27.1724L32.5555 31.8752C33.0459 32.2462 33.1453 32.9481 32.7775 33.4428C32.4097 33.9375 31.714 34.0378 31.2236 33.6667L24.1201 28.2921V19.8942C24.1201 19.2758 24.617 18.7745 25.23 18.7745Z" fill="#FBFBFB"/>
</svg>
