<svg width="23" height="24" viewBox="0 0 23 24" fill="none" xmlns="http://www.w3.org/2000/svg">
<path d="M21.0391 9.28873C18.6371 6.88673 15.4408 5.55658 12.0263 5.55658C8.61179 5.55658 5.41564 6.88665 3.01357 9.28873C2.45772 9.84458 2.45772 10.7181 3.01357 11.2739C3.29149 11.5518 3.6489 11.6909 4.00616 11.6909C4.36342 11.6909 4.72083 11.5518 4.99875 11.2739C6.86472 9.38788 9.36616 8.35555 12.0263 8.35555C14.6865 8.35555 17.1878 9.38788 19.0539 11.2738C19.6097 11.8296 20.4832 11.8296 21.0391 11.2738C21.5951 10.7179 21.5951 9.82462 21.0391 9.28859V9.28873Z" fill="#413C39"/>
<path d="M6.74599 13.041C6.19014 13.5969 6.19014 14.4704 6.74599 15.0262C7.02391 15.3041 7.38132 15.4432 7.73858 15.4432C8.09585 15.4432 8.45325 15.3041 8.73118 15.0262C10.5575 13.1998 13.5155 13.1998 15.322 15.0064C15.858 15.5623 16.7513 15.5623 17.3072 15.0064C17.863 14.4506 17.863 13.5771 17.3072 13.0212C14.389 10.1228 9.66421 10.1228 6.74599 13.041Z" fill="#413C39"/>
<path d="M14.2297 18.302C14.2297 19.508 13.2521 20.4856 12.0459 20.4856C10.8399 20.4856 9.8623 19.508 9.8623 18.302C9.8623 17.0959 10.8399 16.1182 12.0459 16.1182C13.252 16.1182 14.2297 17.0959 14.2297 18.302Z" fill="#413C39"/>
</svg>
