<svg width="24" height="24" viewBox="0 0 24 24" fill="none" xmlns="http://www.w3.org/2000/svg">
<g clip-path="url(#clip0_194_2149)">
<path d="M3.96429 2C3.42991 2 3 2.41797 3 2.9375C3 3.45703 3.42991 3.875 3.96429 3.875H4.28571V9.69141C4.20938 9.74609 4.13304 9.80469 4.06071 9.86328C3.43795 10.3789 3 11.0977 3 12C3 13.832 3.57455 15.2852 4.48661 16.3945C5.05714 17.0859 5.73616 17.6172 6.43527 18.0273L5.63571 20.3555C5.50313 20.7383 5.57143 21.1562 5.8125 21.4805C6.05357 21.8047 6.4433 22 6.85714 22H17.1429C17.5567 22 17.9424 21.8086 18.1875 21.4805C18.4326 21.1523 18.4969 20.7344 18.3643 20.3555L17.5688 18.0312C18.2679 17.6211 18.9469 17.0898 19.5174 16.3984C20.4295 15.2891 21.004 13.8398 21.004 12.0039C21.004 11.1016 20.5661 10.3828 19.9433 9.87109C19.871 9.8125 19.7946 9.75391 19.7183 9.69922V3.875H20.0397C20.5741 3.875 21.004 3.45703 21.004 2.9375C21.004 2.41797 20.5741 2 20.0397 2H3.96429ZM18.4286 12.0117C18.4286 12.0508 18.4165 12.1133 18.2759 12.2305C18.083 12.3906 17.7134 12.582 17.0987 12.7539C15.8772 13.0937 14.0933 13.25 12 13.25C9.9067 13.25 8.12277 13.0938 6.90134 12.75C6.28661 12.5781 5.91696 12.3867 5.72411 12.2266C5.58348 12.1094 5.57143 12.0469 5.57143 12.0078V11.9922C5.57143 11.9531 5.57143 11.8945 5.72411 11.7656C5.91696 11.6055 6.28661 11.4141 6.90134 11.2422C8.12277 10.9062 9.9067 10.75 12 10.75C14.0933 10.75 15.8772 10.9062 17.0987 11.25C17.7134 11.4219 18.083 11.6133 18.2759 11.7734C18.4286 11.8984 18.4286 11.9609 18.4286 12V12.0156V12.0117ZM16.1866 17L16.1786 17.0195V17H16.1866ZM7.5 4.5H8.78571C9.13929 4.5 9.42857 4.78125 9.42857 5.125C9.42857 5.46875 9.13929 5.75 8.78571 5.75H7.5C7.14643 5.75 6.85714 5.46875 6.85714 5.125C6.85714 4.78125 7.14643 4.5 7.5 4.5Z" fill="#1C3431"/>
</g>
<defs>
<clipPath id="clip0_194_2149">
<rect width="18" height="20" fill="white" transform="translate(3 2)"/>
</clipPath>
</defs>
</svg>
