<svg width="25" height="24" viewBox="0 0 25 24" fill="none" xmlns="http://www.w3.org/2000/svg">
<path d="M18.3711 6V4H20.3711V2H6.37109C5.27109 2 4.37109 2.9 4.37109 4V20C4.37109 21.1 5.27109 22 6.37109 22H20.3711V20H16.3411C16.9696 19.5393 17.4808 18.9371 17.8335 18.2423C18.1861 17.5474 18.3703 16.7793 18.3711 16V11H8.37109V16C8.37109 17.64 9.18109 19.09 10.4011 20H6.37109V4H8.37109V6C8.37109 6.55 8.82109 7 9.37109 7H17.3711C17.9211 7 18.3711 6.55 18.3711 6ZM13.3711 8C13.9211 8 14.3711 8.45 14.3711 9C14.3711 9.55 13.9211 10 13.3711 10C12.8211 10 12.3711 9.55 12.3711 9C12.3711 8.45 12.8211 8 13.3711 8Z" fill="#1C3431"/>
</svg>
