<svg width="23" height="23" viewBox="0 0 23 23" fill="none" xmlns="http://www.w3.org/2000/svg">
<path d="M21.0391 8.73215C18.6371 6.33015 15.4408 5 12.0263 5C8.61179 5 5.41564 6.33007 3.01357 8.73215C2.45772 9.288 2.45772 10.1615 3.01357 10.7173C3.29149 10.9953 3.6489 11.1343 4.00616 11.1343C4.36342 11.1343 4.72083 10.9953 4.99875 10.7173C6.86472 8.8313 9.36616 7.79897 12.0263 7.79897C14.6865 7.79897 17.1878 8.8313 19.0539 10.7172C19.6097 11.273 20.4832 11.273 21.0391 10.7172C21.5951 10.1613 21.5951 9.26804 21.0391 8.73201V8.73215Z" fill="#1C3431"/>
<path d="M6.7455 12.4845C6.18965 13.0404 6.18965 13.9138 6.7455 14.4697C7.02342 14.7476 7.38083 14.8866 7.7381 14.8866C8.09536 14.8866 8.45276 14.7476 8.73069 14.4697C10.5571 12.6433 13.515 12.6433 15.3215 14.4499C15.8575 15.0057 16.7508 15.0057 17.3067 14.4499C17.8625 13.894 17.8625 13.0206 17.3067 12.4647C14.3885 9.56626 9.66373 9.56626 6.7455 12.4845Z" fill="#1C3431"/>
<path d="M14.2302 17.7454C14.2302 18.9514 13.2526 19.9291 12.0464 19.9291C10.8404 19.9291 9.86279 18.9514 9.86279 17.7454C9.86279 16.5393 10.8404 15.5616 12.0464 15.5616C13.2525 15.5616 14.2302 16.5393 14.2302 17.7454Z" fill="#1C3431"/>
</svg>
