<svg width="10" height="12" viewBox="0 0 10 12" fill="none" xmlns="http://www.w3.org/2000/svg">
<path d="M8.79134 4.55327L5.29134 8.45373C5.24967 8.50003 5.20454 8.5329 5.15592 8.55234C5.10731 8.57179 5.05523 8.58136 4.99967 8.58105C4.94412 8.58105 4.89204 8.57148 4.84342 8.55234C4.79481 8.53321 4.74967 8.50034 4.70801 8.45373L1.19759 4.55327C1.10037 4.44525 1.05176 4.31021 1.05176 4.14818C1.05176 3.98614 1.10384 3.84725 1.20801 3.73151C1.31217 3.61577 1.4337 3.5579 1.57259 3.5579C1.71148 3.5579 1.83301 3.61577 1.93717 3.73151L4.99967 7.13429L8.06217 3.73151C8.1594 3.62349 8.27926 3.56947 8.42176 3.56947C8.56426 3.56947 8.68745 3.62734 8.79134 3.74308C8.89551 3.85882 8.94759 3.99386 8.94759 4.14818C8.94759 4.3025 8.89551 4.43753 8.79134 4.55327Z" fill="#FBFBFB"/>
</svg>
