<svg width="24" height="25" viewBox="0 0 24 25" fill="none" xmlns="http://www.w3.org/2000/svg">
<path d="M0.0101776 17.4706C0.0101776 16.4039 0.0237478 15.3373 0.0101776 14.258C-0.00339254 13.4453 0.742965 12.9755 1.42147 13.0009C2.07284 13.0263 2.64279 13.5469 2.65636 14.1564C2.66993 14.8421 2.66992 15.5278 2.66992 16.2135C2.66992 16.8103 3.0906 17.2166 3.71483 17.2166C6.90381 17.2166 10.0928 17.2166 13.2818 17.2166C13.8924 17.2166 14.3674 16.7722 14.3538 16.2135C14.3267 15.5659 14.3403 14.9056 14.3403 14.258C14.3403 13.5977 14.8695 13.0644 15.5616 13.0136C16.2672 12.9628 16.8779 13.4199 16.9729 14.0802C16.9864 14.1691 17 14.258 17 14.3469C17 16.4547 17 18.5753 17 20.6831C17 21.0894 16.8643 21.4323 16.525 21.6989C16.1044 22.0291 15.6294 22.0799 15.1409 21.8894C14.6795 21.7116 14.4352 21.3815 14.3674 20.9371C14.3538 20.8228 14.3131 20.7847 14.1774 20.7847C13.8382 20.7974 13.4853 20.7974 13.1461 20.7974C9.76711 20.7974 6.38814 20.7974 3.02275 20.7974C2.69706 20.7974 2.69707 20.7974 2.62921 21.0767C2.47994 21.6481 1.88286 22.0418 1.21792 21.991C0.580123 21.9402 0.0644557 21.4831 0.0373154 20.8863C0.0101751 20.1752 0.0237478 19.4641 0.0101776 18.753C-0.00339254 18.3213 -0.00339254 17.8896 0.0101776 17.4706Z" fill="#413C39"/>
<path d="M8.53589 15.9685C7.30257 15.9685 6.06925 15.9842 4.82159 15.9685C4.54911 15.9685 4.26229 15.9215 4.00416 15.8116C3.35881 15.5134 3.02897 14.9327 3.01463 14.1794C3.00029 12.4216 3.02897 10.6638 3.00029 8.90597C2.98595 8.08984 3.50223 7.17956 4.49175 7.03831C4.6495 7.02261 4.80725 7.00691 4.965 7.00691C7.37428 7.00691 9.79789 6.99122 12.2072 7.00691C12.8669 7.00691 13.4405 7.25803 13.7847 7.9329C13.9424 8.23109 13.9998 8.54499 13.9998 8.89027C13.9998 10.6481 13.9711 12.4216 13.9998 14.1794C14.0141 15.074 13.3114 15.9685 12.3936 15.9842C11.5905 15.9999 10.8018 15.9999 9.99867 15.9999C9.52542 15.9842 9.03782 15.9842 8.53589 15.9685Z" fill="#413C39"/>
</svg>
