<svg width="28" height="27" viewBox="0 0 28 27" fill="none" xmlns="http://www.w3.org/2000/svg">
<g clip-path="url(#clip0_157_559)">
<path d="M13.9362 0.484976C14.3684 0.484976 14.7939 0.513016 15.1898 0.578994C15.5797 0.630081 15.9643 0.715074 16.3394 0.833007C16.7155 0.946818 17.0833 1.08867 17.4512 1.26681C17.8091 1.4367 18.1769 1.64453 18.5447 1.8705C19.1666 2.26637 19.7785 2.58636 20.402 2.84202C21.6294 3.33328 22.9273 3.6256 24.2469 3.70798C24.9165 3.75581 25.6043 3.78385 26.3202 3.78385V10.3816C26.3202 11.6352 26.1602 12.8228 25.8402 13.9543C25.5328 15.0697 25.0961 16.1452 24.5388 17.1591C23.9839 18.1716 23.3273 19.125 22.5793 20.0044C21.8197 20.9039 20.9974 21.7483 20.1183 22.5314C19.2276 23.3167 18.2895 24.0466 17.3093 24.7169C16.3295 25.3964 15.3399 26.0282 14.3502 26.6022L13.9544 26.8381L13.5585 26.6022C12.5411 26.0132 11.5474 25.3842 10.5796 24.7169C9.59389 24.0542 8.65531 23.3239 7.77061 22.5314C6.8921 21.7483 6.07027 20.9039 5.3113 20.0044C4.56525 19.1212 3.90574 18.1684 3.34187 17.1591C2.79414 16.1407 2.35782 15.0662 2.04046 13.9543C1.71844 12.791 1.55968 11.5886 1.56873 10.3816V3.78385C2.28623 3.78385 2.97405 3.75581 3.64372 3.70798C4.30293 3.66219 4.95788 3.56792 5.60325 3.42592C6.23499 3.28407 6.86672 3.09604 7.48856 2.84202C8.13382 2.5816 8.75248 2.25957 9.33593 1.8804C10.0617 1.40866 10.7973 1.06063 11.5231 0.831358C12.3047 0.591746 13.1188 0.474895 13.9362 0.484976V0.484976ZM24.6609 5.40525C23.4123 5.34467 22.1753 5.13592 20.976 4.78341C19.783 4.42755 18.6468 3.90384 17.6013 3.22799C17.059 2.87204 16.47 2.59283 15.8512 2.39832C15.2331 2.2115 14.5902 2.11919 13.9445 2.12452C13.2939 2.12031 12.6463 2.21258 12.0229 2.39832C11.4031 2.58651 10.8149 2.86615 10.2778 3.22799C9.23046 3.90752 8.09122 4.43354 6.89476 4.79001C5.72531 5.12979 4.50143 5.33762 3.21816 5.4135V10.3899C3.21816 11.4834 3.36002 12.5292 3.64372 13.537C3.93274 14.536 4.33101 15.5002 4.83131 16.412C5.33761 17.3332 5.93435 18.2018 6.61271 19.0049C7.30052 19.8147 8.03452 20.5685 8.82625 21.2844C9.61798 22.0019 10.4477 22.6617 11.3153 23.2736C12.1911 23.8872 13.0686 24.4431 13.9445 24.9511C14.8413 24.429 15.7157 23.8693 16.5654 23.2736C17.4388 22.6636 18.2728 21.9992 19.0627 21.2844C19.8544 20.5685 20.59 19.8147 21.2779 19.0049C21.9563 18.2019 22.553 17.3333 23.0593 16.412C23.5573 15.5013 23.9497 14.5367 24.2287 13.537C24.521 12.5137 24.6665 11.4541 24.6609 10.3899V5.40525V5.40525Z" fill="#CA5029"/>
<path fill-rule="evenodd" clip-rule="evenodd" d="M20.0854 8.25239L19.3596 7.62891L18.69 7.68664L11.4984 16.1779L9.049 12.6811L8.38922 12.569L7.62553 13.1149L7.51172 13.7747L10.6605 18.2711L11.0184 18.469L11.7722 18.5152L12.1582 18.347L20.1332 8.92042L20.0854 8.25239V8.25239Z" fill="#CA5029"/>
</g>
<defs>
<clipPath id="clip0_157_559">
<rect width="26.391" height="26.391" fill="white" transform="translate(0.626953 0.485352)"/>
</clipPath>
</defs>
</svg>
