<svg width="45" height="45" viewBox="0 0 45 45" fill="none" xmlns="http://www.w3.org/2000/svg">
<rect width="45" height="45" rx="22.5" fill="#C18050"/>
<path d="M24.6129 16.7375L19.1774 22.0567C19.1129 22.1201 19.0671 22.1887 19.04 22.2625C19.0129 22.3364 18.9996 22.4156 19 22.5C19 22.5844 19.0133 22.6636 19.04 22.7375C19.0667 22.8113 19.1125 22.8799 19.1774 22.9433L24.6129 28.2784C24.7634 28.4261 24.9516 28.5 25.1774 28.5C25.4032 28.5 25.5968 28.4208 25.7581 28.2625C25.9194 28.1042 26 27.9195 26 27.7084C26 27.4974 25.9194 27.3127 25.7581 27.1544L21.0161 22.5L25.7581 17.8456C25.9086 17.6979 25.9839 17.5157 25.9839 17.2992C25.9839 17.0826 25.9032 16.8954 25.7419 16.7375C25.5806 16.5792 25.3925 16.5 25.1774 16.5C24.9624 16.5 24.7742 16.5792 24.6129 16.7375Z" fill="white"/>
</svg>
