<svg width="40" height="40" viewBox="0 0 40 40" fill="none" xmlns="http://www.w3.org/2000/svg">
<rect width="40" height="40" rx="20" fill="#C18050"/>
<path d="M22.4147 26.723L16.2028 20.5171C16.129 20.4433 16.0767 20.3632 16.0457 20.277C16.0148 20.1909 15.9995 20.0985 16 20C16 19.9015 16.0152 19.8091 16.0457 19.723C16.0762 19.6368 16.1286 19.5567 16.2028 19.4828L22.4147 13.2586C22.5868 13.0862 22.8018 13 23.0599 13C23.318 13 23.5392 13.0923 23.7235 13.277C23.9078 13.4617 24 13.6772 24 13.9235C24 14.1697 23.9078 14.3852 23.7235 14.5699L18.3042 20L23.7235 25.4301C23.8955 25.6025 23.9816 25.815 23.9816 26.0677C23.9816 26.3203 23.8894 26.5388 23.7051 26.723C23.5207 26.9077 23.3057 27 23.0599 27C22.8141 27 22.5991 26.9077 22.4147 26.723Z" fill="#FBFBFB"/>
</svg>
