<svg width="52" height="52" viewBox="0 0 52 52" fill="none" xmlns="http://www.w3.org/2000/svg">
<path d="M17.7984 6.35864C18.025 6.129 18.3323 5.99999 18.6528 5.99999H32.3472C32.6677 5.99999 32.975 6.129 33.2016 6.35864C33.4282 6.58827 33.5556 6.89973 33.5556 7.22448C33.5556 7.54924 33.4282 7.86069 33.2016 8.09033C32.975 8.31996 32.6677 8.44897 32.3472 8.44897H31.9444V10.0816H34.3611C35.8566 10.0816 37.2909 10.6837 38.3484 11.7553C39.4059 12.8269 40 14.2804 40 15.7959V26.8163V37.8367C40 39.211 39.5114 40.5392 38.6238 41.5782C37.7361 42.6171 36.5088 43.2972 35.1667 43.4939V44.7755C35.1667 45.1003 35.0394 45.4117 34.8128 45.6413C34.5861 45.871 34.2788 46 33.9583 46C33.6379 46 33.3305 45.871 33.1039 45.6413C32.8773 45.4117 32.75 45.1003 32.75 44.7755V43.551H18.25V44.7755C18.25 45.1003 18.1227 45.4117 17.8961 45.6413C17.6695 45.871 17.3621 46 17.0417 46C16.7212 46 16.4139 45.871 16.1872 45.6413C15.9606 45.4117 15.8333 45.1003 15.8333 44.7755V43.4939C14.491 43.2975 13.2635 42.6175 12.3758 41.5785C11.4881 40.5395 10.9997 39.2111 11 37.8367V15.7959C11 14.2804 11.5941 12.8269 12.6516 11.7553C13.7091 10.6837 15.1434 10.0816 16.6389 10.0816H19.0556V8.44897H18.6528C18.3323 8.44897 18.025 8.31996 17.7984 8.09033C17.5718 7.86069 17.4444 7.54924 17.4444 7.22448C17.4444 6.89973 17.5718 6.58827 17.7984 6.35864Z" fill="#C18050"/>
<path fill-rule="evenodd" clip-rule="evenodd" d="M19 17C19 16.4477 19.4822 16 20.0769 16H31.9231C32.5178 16 33 16.4477 33 17C33 17.5523 32.5178 18 31.9231 18H20.0769C19.4822 18 19 17.5523 19 17Z" fill="white"/>
</svg>
