<svg width="101" height="86" viewBox="0 0 101 86" fill="none" xmlns="http://www.w3.org/2000/svg">
<g clip-path="url(#clip0_259_1937)">
<path d="M91.9569 23.2176L92.2756 29.3138C92.3026 29.6929 91.9928 30.0178 91.6157 30.0178H80.9356C80.5675 30.0178 80.2667 29.7245 80.2667 29.3545V20.9027C80.2667 19.2151 78.8975 17.8478 77.2184 17.8478H55.6877C54.0087 17.8478 52.6484 19.2151 52.6484 20.9118V30.4058H49.9593V26.8952H49.9772V20.9118C49.9772 19.2151 48.608 17.8478 46.929 17.8478H25.3982C23.7192 17.8478 22.3589 19.2151 22.3589 20.9027V29.3545C22.3589 29.7245 22.0582 30.0178 21.69 30.0178H11.0099C10.6239 30.0178 10.3231 29.6974 10.341 29.3138L10.6598 23.2176V7.95665C9.82027 7.20759 9.29053 6.10657 9.29053 4.88371C9.29502 2.44701 11.396 0.502167 13.8786 0.786448C15.7192 1.00304 17.2187 2.47409 17.4566 4.32417C17.6452 5.76363 17.0885 7.09478 16.1278 7.95665V14.4816C18.7316 12.2164 22.3545 9.97821 27.149 8.94487C27.185 8.93584 27.2164 8.93584 27.2523 8.93584L48.9896 8.34021H53.6316L75.3688 8.93584C75.4048 8.93584 75.4452 8.93584 75.4721 8.94487C80.2667 9.97821 83.8896 12.2164 86.5024 14.4816V7.95665C85.5327 7.09478 84.976 5.76363 85.1645 4.32417C85.4115 2.47409 86.9019 1.00304 88.7515 0.786448C91.2341 0.502167 93.3351 2.44701 93.3351 4.88371C93.3351 6.10657 92.7964 7.20759 91.9569 7.95665V23.2176Z" fill="#413C39"/>
<path d="M6.65586 35.13C8.25406 30.4913 13.0262 28.7179 17.5694 30.1664C21.7355 31.3576 25.0306 34.2591 28.8421 35.9558C36.3841 39.4709 44.9408 39.1686 53.1607 39.4529C44.8375 40.9826 35.8679 41.6685 27.9038 38.0044C23.8724 36.1769 20.7254 33.2438 17.0262 31.8314C13.0217 30.2115 8.99479 31.3306 6.65137 35.1255L6.65586 35.13Z" fill="#413C39"/>
<path d="M94.3453 32.7298C89.7572 28.1723 83.0232 30.7533 77.9593 33.0908C68.599 37.6618 57.8337 37.2783 47.8359 35.6267C57.7843 35.0491 67.9077 35.2748 77.1422 31.1188C80.9043 29.5937 85.205 28.1858 89.3352 29.2101C91.3464 29.7155 93.3217 30.8932 94.3453 32.7298Z" fill="#413C39"/>
</g>
<path d="M15.0091 61.5073C14.8525 62.6034 14.4767 63.5508 13.8816 64.3494C13.2866 65.148 12.5271 65.7665 11.6033 66.2049C10.695 66.6277 9.67721 66.8391 8.54977 66.8391C7.50062 66.8391 6.52977 66.6591 5.63721 66.2989C4.74465 65.9231 3.96171 65.3907 3.28837 64.7017C2.6307 64.0127 2.11395 63.1828 1.73814 62.2119C1.36233 61.2411 1.17442 60.1606 1.17442 58.9705C1.17442 57.7648 1.36233 56.6843 1.73814 55.7291C2.11395 54.7583 2.6307 53.9284 3.28837 53.2394C3.96171 52.5504 4.74465 52.0258 5.63721 51.6656C6.52977 51.2898 7.50062 51.1019 8.54977 51.1019C9.69287 51.1019 10.7185 51.3211 11.6267 51.7596C12.5506 52.1824 13.3101 52.8009 13.9051 53.6152C14.5002 54.4138 14.876 55.369 15.0326 56.4808H13.2944C13.0752 55.6978 12.7307 55.0401 12.2609 54.5077C11.8068 53.9753 11.2588 53.5682 10.6167 53.2863C9.97473 53.0045 9.28574 52.8636 8.54977 52.8636C7.59457 52.8636 6.69419 53.0984 5.8486 53.5682C5.01868 54.038 4.34535 54.727 3.8286 55.6352C3.31186 56.5434 3.05349 57.6552 3.05349 58.9705C3.05349 60.2859 3.31186 61.3977 3.8286 62.3059C4.34535 63.2141 5.01868 63.9031 5.8486 64.3729C6.69419 64.8426 7.59457 65.0775 8.54977 65.0775C9.28574 65.0775 9.9669 64.9444 10.5933 64.6782C11.2353 64.3963 11.7833 63.9892 12.2374 63.4568C12.7072 62.9244 13.0517 62.2746 13.2709 61.5073H15.0091ZM22.8408 66.8391C21.8386 66.8391 20.8991 66.5964 20.0222 66.111C19.1453 65.6256 18.4328 64.9287 17.8847 64.0205C17.3523 63.0967 17.0861 62.0084 17.0861 60.7556C17.0861 59.5029 17.3523 58.4225 17.8847 57.5142C18.4328 56.5904 19.1453 55.8779 20.0222 55.3768C20.8991 54.8757 21.8386 54.6252 22.8408 54.6252C23.843 54.6252 24.7747 54.8757 25.6359 55.3768C26.5128 55.8779 27.2175 56.5904 27.7499 57.5142C28.2823 58.4225 28.5485 59.5029 28.5485 60.7556C28.5485 62.0084 28.2823 63.0967 27.7499 64.0205C27.2175 64.9287 26.5128 65.6256 25.6359 66.111C24.7747 66.5964 23.843 66.8391 22.8408 66.8391ZM22.8408 65.0775C23.4985 65.0775 24.117 64.9131 24.6964 64.5842C25.2758 64.2554 25.7455 63.77 26.1057 63.128C26.4815 62.4703 26.6694 61.6795 26.6694 60.7556C26.6694 59.8318 26.4815 59.0488 26.1057 58.4068C25.7455 57.7491 25.2758 57.248 24.6964 56.9036C24.117 56.5591 23.4985 56.3868 22.8408 56.3868C22.1831 56.3868 21.5568 56.5591 20.9617 56.9036C20.3823 57.2324 19.9047 57.7256 19.5289 58.3833C19.1531 59.0253 18.9652 59.8161 18.9652 60.7556C18.9652 61.6795 19.1453 62.4703 19.5054 63.128C19.8813 63.77 20.3667 64.2554 20.9617 64.5842C21.5568 64.9131 22.1831 65.0775 22.8408 65.0775ZM30.9331 54.8601H32.8122V66.6042H30.9331V54.8601ZM36.8522 54.6252C37.4785 54.6252 38.0422 54.7191 38.5433 54.907C39.0444 55.0949 39.4672 55.369 39.8117 55.7291C40.1562 56.0893 40.4224 56.5277 40.6103 57.0445C40.7982 57.5456 40.8922 58.1171 40.8922 58.7591V66.6042H39.0131V59.2289C39.0131 58.3207 38.8017 57.6395 38.3789 57.1854C37.9561 56.7313 37.3219 56.5042 36.4763 56.5042C35.8343 56.5042 35.2393 56.6687 34.6912 56.9975C34.1432 57.3263 33.6891 57.7804 33.3289 58.3598C32.9844 58.9236 32.773 59.5812 32.6947 60.3329L32.6712 58.9705C32.7495 58.3129 32.9061 57.7178 33.141 57.1854C33.3915 56.653 33.6969 56.1989 34.057 55.8231C34.4328 55.4316 34.8556 55.1341 35.3254 54.9305C35.8108 54.727 36.3197 54.6252 36.8522 54.6252ZM44.7442 54.6252C45.3706 54.6252 45.9343 54.7191 46.4354 54.907C46.9365 55.0949 47.3593 55.369 47.7038 55.7291C48.0483 56.0893 48.3145 56.5277 48.5024 57.0445C48.6903 57.5456 48.7842 58.1171 48.7842 58.7591V66.6042H46.9052V59.2289C46.9052 58.3207 46.6938 57.6395 46.271 57.1854C45.8482 56.7313 45.214 56.5042 44.3684 56.5042C43.7264 56.5042 43.1314 56.6687 42.5833 56.9975C42.0353 57.3263 41.5811 57.7804 41.221 58.3598C40.8765 58.9236 40.6651 59.5812 40.5868 60.3329L40.5633 58.9705C40.6416 58.3129 40.7982 57.7178 41.0331 57.1854C41.2836 56.653 41.589 56.1989 41.9491 55.8231C42.3249 55.4316 42.7477 55.1341 43.2175 54.9305C43.7029 54.727 44.2118 54.6252 44.7442 54.6252ZM51.0074 54.8601H57.913V56.6217H51.0074V54.8601ZM57.0909 50.1624H58.1713V52.0415H57.0909C56.6994 52.0258 56.3392 52.0806 56.0104 52.2059C55.6972 52.3311 55.4467 52.5504 55.2588 52.8636C55.0709 53.1611 54.9769 53.5917 54.9769 54.1554V66.6042H53.0978V54.1554C53.0978 53.2159 53.2623 52.4564 53.5911 51.877C53.9356 51.282 54.4054 50.8514 55.0004 50.5852C55.6111 50.3033 56.3079 50.1624 57.0909 50.1624ZM64.84 66.8391C63.8378 66.8391 62.8983 66.5964 62.0214 66.111C61.1445 65.6256 60.432 64.9287 59.884 64.0205C59.3516 63.0967 59.0854 62.0084 59.0854 60.7556C59.0854 59.5029 59.3516 58.4225 59.884 57.5142C60.432 56.5904 61.1445 55.8779 62.0214 55.3768C62.8983 54.8757 63.8378 54.6252 64.84 54.6252C65.8422 54.6252 66.7739 54.8757 67.6351 55.3768C68.512 55.8779 69.2167 56.5904 69.7491 57.5142C70.2815 58.4225 70.5477 59.5029 70.5477 60.7556C70.5477 62.0084 70.2815 63.0967 69.7491 64.0205C69.2167 64.9287 68.512 65.6256 67.6351 66.111C66.7739 66.5964 65.8422 66.8391 64.84 66.8391ZM64.84 65.0775C65.4977 65.0775 66.1162 64.9131 66.6956 64.5842C67.275 64.2554 67.7447 63.77 68.1049 63.128C68.4807 62.4703 68.6686 61.6795 68.6686 60.7556C68.6686 59.8318 68.4807 59.0488 68.1049 58.4068C67.7447 57.7491 67.275 57.248 66.6956 56.9036C66.1162 56.5591 65.4977 56.3868 64.84 56.3868C64.1823 56.3868 63.556 56.5591 62.9609 56.9036C62.3816 57.2324 61.904 57.7256 61.5282 58.3833C61.1523 59.0253 60.9644 59.8161 60.9644 60.7556C60.9644 61.6795 61.1445 62.4703 61.5047 63.128C61.8805 63.77 62.3659 64.2554 62.9609 64.5842C63.556 64.9131 64.1823 65.0775 64.84 65.0775ZM72.9323 54.8601H74.8114V66.6042H72.9323V54.8601ZM78.5695 56.6217C77.7709 56.6217 77.0976 56.8253 76.5495 57.2324C76.0171 57.6239 75.5943 58.1093 75.2811 58.6887C74.9836 59.2524 74.7879 59.8004 74.6939 60.3329L74.6704 58.9705C74.6704 58.8296 74.7018 58.5947 74.7644 58.2659C74.827 57.937 74.9445 57.5691 75.1167 57.1619C75.289 56.7391 75.516 56.3398 75.7979 55.964C76.0954 55.5725 76.4712 55.2515 76.9253 55.001C77.3794 54.7504 77.9275 54.6252 78.5695 54.6252V56.6217ZM79.8632 54.8601H86.7688V56.6217H79.8632V54.8601ZM82.3765 51.8066H84.2555V66.6042H82.3765V51.8066ZM93.1987 66.8391C92.2749 66.8391 91.4214 66.5808 90.6385 66.064C89.8712 65.5316 89.2527 64.8113 88.7829 63.9031C88.3288 62.9792 88.1018 61.9301 88.1018 60.7556C88.1018 59.5812 88.3366 58.5321 88.8064 57.6082C89.2762 56.6843 89.9104 55.9562 90.709 55.4238C91.5232 54.8914 92.4314 54.6252 93.4336 54.6252C94.5297 54.6252 95.3597 54.907 95.9234 55.4708C96.5028 56.0188 96.8942 56.7548 97.0978 57.6787C97.317 58.6025 97.4266 59.6282 97.4266 60.7556C97.4266 61.3507 97.364 62.0005 97.2387 62.7052C97.1135 63.3942 96.8942 64.0597 96.5811 64.7017C96.2835 65.328 95.8608 65.8448 95.3127 66.2519C94.7646 66.6434 94.06 66.8391 93.1987 66.8391ZM93.6685 65.054C94.4671 65.054 95.1248 64.8583 95.6415 64.4668C96.1739 64.0753 96.5654 63.5586 96.8159 62.9166C97.0665 62.2589 97.1918 61.5386 97.1918 60.7556C97.1918 59.8944 97.0587 59.1428 96.7925 58.5008C96.5419 57.8431 96.1504 57.3342 95.618 56.974C95.1013 56.5982 94.4514 56.4103 93.6685 56.4103C92.4941 56.4103 91.5859 56.8253 90.9439 57.6552C90.3018 58.4694 89.9808 59.5029 89.9808 60.7556C89.9808 61.5856 90.1374 62.3294 90.4506 62.987C90.7794 63.6291 91.2179 64.138 91.7659 64.5138C92.3297 64.8739 92.9639 65.054 93.6685 65.054ZM97.1918 54.8601H99.0708V66.6042H97.3562C97.3562 66.6042 97.3405 66.4633 97.3092 66.1815C97.2935 65.8996 97.2701 65.5708 97.2387 65.1949C97.2074 64.8191 97.1918 64.506 97.1918 64.2554V54.8601Z" fill="#413C39"/>
<path d="M14.784 80.9531H14.2047V75.9971H14.784V78.1267H17.2973V75.9971H17.8767V80.9531H17.2973V78.6199H14.784V80.9531ZM21.1056 81.0471C20.3906 81.0471 19.8347 80.7522 19.438 80.1623C19.13 79.703 18.976 79.1445 18.976 78.4868C18.976 77.7248 19.1796 77.0984 19.5867 76.6078C19.973 76.138 20.4793 75.9031 21.1056 75.9031C21.8207 75.9031 22.3766 76.2006 22.7733 76.7957C23.0813 77.2655 23.2353 77.8292 23.2353 78.4868C23.2353 79.2489 23.0317 79.8727 22.6246 80.3581C22.2383 80.8174 21.732 81.0471 21.1056 81.0471ZM19.5946 78.4868C19.5946 79.1445 19.7381 79.6587 20.0252 80.0292C20.2914 80.3685 20.6515 80.5382 21.1056 80.5382C21.6276 80.5382 22.0217 80.3189 22.2879 79.8805C22.5071 79.5203 22.6167 79.0558 22.6167 78.4868C22.6167 77.8292 22.4732 77.3124 22.1861 76.9366C21.9199 76.5817 21.5598 76.4042 21.1056 76.4042C20.5889 76.4042 20.1948 76.6313 19.9234 77.0854C19.7042 77.4507 19.5946 77.9179 19.5946 78.4868ZM23.5437 76.4903V75.9971H27.2705V76.4903H25.6342V80.9531H25.0548V76.4903H23.5437ZM28.1425 75.9971H31.055V76.4903H28.7219V78.1267H30.6871V78.6199H28.7219V80.4599H31.1568V80.9531H28.1425V75.9971ZM32.295 80.9531V75.9971H32.8744V80.4599H34.8239V80.9531H32.295ZM40.3985 78.3772H40.9622V78.6826C40.9622 79.3298 40.8631 79.8048 40.6647 80.1075L41.4085 80.9531H40.7587L40.3829 80.5303C40.0853 80.8748 39.6704 81.0471 39.138 81.0471C38.6682 81.0471 38.2846 80.8983 37.9871 80.6008C37.7313 80.3398 37.6034 80.0214 37.6034 79.6456C37.6034 79.3742 37.6739 79.1132 37.8148 78.8627C37.961 78.6121 38.1541 78.4112 38.3942 78.2598L38.2924 78.1423C37.9166 77.7248 37.7287 77.349 37.7287 77.0149C37.7287 76.6861 37.8435 76.4199 38.0732 76.2163C38.3028 76.0075 38.603 75.9031 38.9736 75.9031C39.3233 75.9031 39.673 76.0232 40.0227 76.2633L39.7957 76.6234C39.519 76.4773 39.2424 76.4042 38.9657 76.4042C38.7622 76.4042 38.5978 76.459 38.4725 76.5686C38.3524 76.6782 38.2924 76.8192 38.2924 76.9914C38.2924 77.2628 38.4777 77.6099 38.8483 78.0327L40.2889 79.6769C40.362 79.5256 40.3985 79.2333 40.3985 78.8V78.3772ZM38.6917 78.5808C38.556 78.6748 38.4412 78.8131 38.3472 78.9958C38.2533 79.1784 38.2063 79.3585 38.2063 79.536C38.2063 79.8387 38.295 80.0814 38.4725 80.2641C38.6499 80.4468 38.8874 80.5382 39.185 80.5382C39.5347 80.5382 39.8139 80.4025 40.0227 80.131L38.6917 78.5808ZM45.2981 75.9971H45.9009L47.6782 80.9531H47.0832L46.6839 79.7944H44.5308L44.1236 80.9531H43.5208L45.2981 75.9971ZM45.5956 76.6469L44.6874 79.3089H46.5116L45.5956 76.6469ZM48.4968 80.9531V75.9971C48.9613 75.9344 49.3632 75.9031 49.7025 75.9031C50.8717 75.9031 51.4563 76.4042 51.4563 77.4064C51.4563 77.9127 51.2919 78.3015 50.963 78.573C50.6655 78.8131 50.2662 78.9331 49.7651 78.9331C49.5407 78.9331 49.311 78.9175 49.0761 78.8861V80.9531H48.4968ZM49.0761 76.4199V78.4164C49.264 78.4477 49.4833 78.4634 49.7338 78.4634C50.475 78.4634 50.8456 78.111 50.8456 77.4064C50.8456 76.7122 50.4646 76.3651 49.7025 76.3651C49.4624 76.3651 49.2536 76.3833 49.0761 76.4199ZM52.5491 80.9531V75.9971C53.0137 75.9344 53.4156 75.9031 53.7548 75.9031C54.924 75.9031 55.5086 76.4042 55.5086 77.4064C55.5086 77.9127 55.3442 78.3015 55.0154 78.573C54.7179 78.8131 54.3186 78.9331 53.8175 78.9331C53.593 78.9331 53.3634 78.9175 53.1285 78.8861V80.9531H52.5491ZM53.1285 76.4199V78.4164C53.3164 78.4477 53.5356 78.4634 53.7862 78.4634C54.5274 78.4634 54.8979 78.111 54.8979 77.4064C54.8979 76.7122 54.5169 76.3651 53.7548 76.3651C53.5147 76.3651 53.306 76.3833 53.1285 76.4199ZM57.2793 75.9971H57.8821L59.6594 80.9531H59.0644L58.6651 79.7944H56.512L56.1048 80.9531H55.502L57.2793 75.9971ZM57.5768 76.6469L56.6686 79.3089H58.4928L57.5768 76.6469ZM59.4568 76.4903V75.9971H63.1836V76.4903H61.5472V80.9531H60.9679V76.4903H59.4568ZM64.6662 76.8348V80.9531H64.0869V75.9971H64.8072C65.1621 76.8166 65.6084 78.0223 66.146 79.6143C66.2556 79.9483 66.3417 80.1989 66.4044 80.3659C66.467 80.178 66.5218 80.0162 66.5688 79.8805C67.1534 78.1632 67.6362 76.8688 68.0172 75.9971H68.7219V80.9531H68.1425V76.827C67.8711 77.7039 67.3804 79.0793 66.6706 80.9531H66.146C65.5249 79.429 65.0316 78.0562 64.6662 76.8348ZM70.1035 75.9971H73.016V76.4903H70.6829V78.1267H72.6481V78.6199H70.6829V80.4599H73.1178V80.9531H70.1035V75.9971ZM74.8354 80.9531H74.256V75.9971H74.7805C75.2555 76.7122 76.0828 78.0588 77.2625 80.0371V75.9971H77.8419V80.9531H77.3016C77.0198 80.5303 76.4456 79.6169 75.5792 78.2128C75.2138 77.6178 74.9658 77.2106 74.8354 76.9914V80.9531ZM78.7399 76.4903V75.9971H82.4667V76.4903H80.8303V80.9531H80.251V76.4903H78.7399ZM83.0646 80.546L83.3151 80.1937C83.6962 80.4129 84.1007 80.5225 84.5287 80.5225C84.8575 80.5225 85.1159 80.4468 85.3038 80.2955C85.4917 80.1389 85.5857 79.9196 85.5857 79.6378C85.5857 79.1576 85.2699 78.8079 84.6383 78.5886C84.1007 78.4059 83.7118 78.2024 83.4717 77.9779C83.2316 77.7535 83.1116 77.4795 83.1116 77.1558C83.1116 76.7696 83.2629 76.459 83.5657 76.2241C83.8423 76.0101 84.2051 75.9031 84.654 75.9031C85.1446 75.9031 85.5909 76.0388 85.9928 76.3103L85.7344 76.6626C85.4108 76.4903 85.0637 76.4042 84.6931 76.4042C84.3904 76.4042 84.1503 76.4695 83.9728 76.5999C83.7954 76.7304 83.7066 76.9079 83.7066 77.1323C83.7066 77.4821 83.978 77.7587 84.5209 77.9623C85.1368 78.1972 85.5674 78.4399 85.8127 78.6904C86.0633 78.9357 86.1886 79.2567 86.1886 79.6534C86.1886 80.1075 86.0137 80.4651 85.664 80.7261C85.3769 80.9401 85.0272 81.0471 84.6148 81.0471C84.0981 81.0471 83.5813 80.8801 83.0646 80.546Z" fill="#413C39"/>
<defs>
<clipPath id="clip0_259_1937">
<rect width="87.6899" height="39.9302" fill="white" transform="translate(6.65527 0.759277)"/>
</clipPath>
</defs>
</svg>
