<svg width="24" height="24" viewBox="0 0 24 24" fill="none" xmlns="http://www.w3.org/2000/svg">
<path d="M8 3C8.55 3 9.021 3.196 9.413 3.588C9.805 3.98 10.0007 4.45067 10 5L10 9C10 9.55 9.804 10.021 9.412 10.413C9.02 10.805 8.54933 11.0007 8 11L4 11C3.45 11 2.979 10.804 2.587 10.412C2.195 10.02 1.99933 9.54933 2 9L2 5C2 4.45 2.196 3.979 2.588 3.587C2.98 3.195 3.45067 2.99933 4 3L8 3ZM22 6L22 8L13 8L13 6L22 6ZM8 13C8.55 13 9.021 13.196 9.413 13.588C9.805 13.98 10.0007 14.4507 10 15L10 19C10 19.55 9.804 20.021 9.412 20.413C9.02 20.805 8.54933 21.0007 8 21L4 21C3.45 21 2.979 20.804 2.587 20.412C2.195 20.02 1.99933 19.5493 2 19L2 15C2 14.45 2.196 13.979 2.588 13.587C2.98 13.195 3.45067 12.9993 4 13L8 13ZM22 16L22 18L13 18L13 16L22 16Z" fill="#413C39"/>
</svg>
