<svg width="45" height="45" viewBox="0 0 45 45" fill="none" xmlns="http://www.w3.org/2000/svg">
<rect width="45" height="45" rx="22.5" fill="#C18050"/>
<path d="M20.3871 16.7375L25.8226 22.0567C25.8871 22.1201 25.9329 22.1887 25.96 22.2625C25.9871 22.3364 26.0004 22.4156 26 22.5C26 22.5844 25.9867 22.6636 25.96 22.7375C25.9333 22.8113 25.8875 22.8799 25.8226 22.9433L20.3871 28.2784C20.2366 28.4261 20.0484 28.5 19.8226 28.5C19.5968 28.5 19.4032 28.4208 19.2419 28.2625C19.0806 28.1042 19 27.9195 19 27.7084C19 27.4974 19.0806 27.3127 19.2419 27.1544L23.9839 22.5L19.2419 17.8456C19.0914 17.6979 19.0161 17.5157 19.0161 17.2992C19.0161 17.0826 19.0968 16.8954 19.2581 16.7375C19.4194 16.5792 19.6075 16.5 19.8226 16.5C20.0376 16.5 20.2258 16.5792 20.3871 16.7375Z" fill="white"/>
</svg>
