<svg width="16" height="16" viewBox="0 0 16 16" fill="none" xmlns="http://www.w3.org/2000/svg">
<path d="M7.71468 1.02533C7.80449 0.748939 8.19551 0.748939 8.28532 1.02533L9.84101 5.81328C9.88118 5.93688 9.99636 6.02057 10.1263 6.02057L15.1607 6.02057C15.4513 6.02057 15.5721 6.39246 15.337 6.56328L11.2641 9.52239C11.159 9.59878 11.115 9.73419 11.1552 9.8578L12.7109 14.6457C12.8007 14.9221 12.4843 15.152 12.2492 14.9812L8.17634 12.022C8.07119 11.9457 7.92881 11.9457 7.82366 12.022L3.75079 14.9812C3.51568 15.152 3.19934 14.9221 3.28914 14.6457L4.84484 9.8578C4.885 9.73419 4.841 9.59878 4.73586 9.52239L0.662989 6.56328C0.427875 6.39246 0.548707 6.02057 0.839324 6.02057L5.87367 6.02057C6.00364 6.02057 6.11882 5.93688 6.15899 5.81328L7.71468 1.02533Z" fill="#FFDB7D"/>
</svg>
