<svg width="50" height="51" viewBox="0 0 50 51" fill="none" xmlns="http://www.w3.org/2000/svg">
<g clip-path="url(#clip0_191_2009)">
<path fill-rule="evenodd" clip-rule="evenodd" d="M14.2305 33.8021H41.0226V35.3781H14.2305V33.8021Z" fill="#C18050"/>
<path fill-rule="evenodd" clip-rule="evenodd" d="M14.2305 6.48489H33.1426V8.0609H14.2305V6.48489Z" fill="#C18050"/>
<path fill-rule="evenodd" clip-rule="evenodd" d="M7.39619 27.2357C7.39619 30.8922 10.456 33.8564 14.2305 33.8564L14.2305 35.3784C9.58831 35.3784 5.8251 31.7328 5.8251 27.2357C5.8251 22.7386 9.58831 19.093 14.2305 19.093L14.2305 20.615C10.456 20.615 7.39619 23.5792 7.39619 27.2357Z" fill="#C18050"/>
<path fill-rule="evenodd" clip-rule="evenodd" d="M39.9914 14.365C39.9914 10.9282 36.9804 8.04533 33.1426 8.04533L33.1426 6.48492C37.7294 6.48492 41.548 9.95949 41.548 14.365C41.548 18.7704 37.7294 22.245 33.1426 22.245L33.1426 20.6846C36.9804 20.6846 39.9914 17.8018 39.9914 14.365Z" fill="#C18050"/>
<path d="M14.7559 20.0287V45.0308C15.131 46.4102 18.507 46.3894 20.1481 46.2065C21.6486 45.8303 26.0875 46.3632 28.1194 46.6767C31.3078 47.4292 33.147 46.3632 33.6679 45.7362L33.1991 19.6369C33.1991 17.6931 30.7504 17.4684 29.526 17.5991C28.4632 18.1634 26.374 18.618 25.4623 18.7747C22.899 18.9628 20.4868 18.0693 19.6011 17.5991C15.7249 17.0975 14.7559 19.0098 14.7559 20.0287Z" fill="#C18050" stroke="#C18050" stroke-width="0.272943"/>
<path d="M33.9571 22.7703H33.1426L33.5046 42.733C35.0249 42.4835 34.8017 40.7575 34.5 39.9258L33.9571 22.7703Z" fill="#A36D45"/>
<circle cx="11.6037" cy="7.53541" r="3.15201" fill="#C18050"/>
<circle cx="41.0226" cy="34.8531" r="3.15201" fill="#C18050"/>
</g>
<defs>
<clipPath id="clip0_191_2009">
<rect width="50" height="50" fill="white" transform="translate(0 0.5)"/>
</clipPath>
</defs>
</svg>
