<svg width="24" height="25" viewBox="0 0 24 25" fill="none" xmlns="http://www.w3.org/2000/svg">
<path d="M5.0959 15.0003H6.7959C6.7959 14.5419 6.6293 14.1494 6.2961 13.8228C5.9629 13.4961 5.56283 13.333 5.0959 13.3336V15.0003ZM8.1134 15.0003H9.3459C9.3459 13.8475 8.93138 12.8647 8.10235 12.0519C7.27332 11.2392 6.27117 10.833 5.0959 10.8336V12.0419C5.93173 12.0419 6.64375 12.3303 7.23195 12.9069C7.82015 13.4836 8.11397 14.1814 8.1134 15.0003ZM10.6634 15.0003H11.8959C11.8959 14.0836 11.7188 13.2189 11.3646 12.4061C11.0105 11.5933 10.5251 10.885 9.9086 10.2811C9.29263 9.67721 8.57042 9.20165 7.74195 8.85443C6.91348 8.50721 6.03147 8.3336 5.0959 8.3336V9.54193C6.64007 9.54193 7.95417 10.0733 9.0382 11.1361C10.1222 12.1989 10.664 13.4869 10.6634 15.0003ZM7.6459 19.1669V17.5003H4.2459C3.7784 17.5003 3.37805 17.3369 3.04485 17.0103C2.71165 16.6836 2.54533 16.2914 2.5459 15.8336V5.8336C2.5459 5.37527 2.7125 4.98277 3.0457 4.6561C3.3789 4.32943 3.77897 4.16638 4.2459 4.16693H17.8459C18.3134 4.16693 18.7137 4.33027 19.0469 4.65693C19.3801 4.9836 19.5465 5.37582 19.5459 5.8336V15.8336C19.5459 16.2919 19.3793 16.6844 19.0461 17.0111C18.7129 17.3378 18.3128 17.5008 17.8459 17.5003H14.4459V19.1669H7.6459Z" fill="#413C39"/>
</svg>
