<svg width="44" height="44" viewBox="0 0 44 44" fill="none" xmlns="http://www.w3.org/2000/svg">
<path d="M21.4442 5.92673C30.0136 5.92673 36.9614 12.8751 36.9614 21.444C36.9614 30.3004 29.5669 37.3469 20.7287 36.9446V34.6044C28.2767 35.0053 34.6244 29.0149 34.6244 21.4436C34.6244 14.1638 28.7234 8.26335 21.4442 8.26335C14.1644 8.26335 8.26449 14.1643 8.26449 21.4436C8.26449 26.6532 11.3257 31.3536 16.0552 33.475V14.197H23.263C24.5296 14.197 25.4984 14.2594 26.1691 14.3795C29.0207 14.8523 30.6398 16.8777 30.6398 19.7078C30.6398 24.1261 27.4173 25.5023 23.4847 25.5023H18.5877V36.5334C11.068 34.9466 5.92676 29.3329 5.92676 21.444C5.92676 12.8752 12.8752 5.92678 21.444 5.92678L21.4442 5.92673ZM18.5884 23.2623H23.5211C25.9602 23.2623 28.0271 22.5886 28.0271 19.7828C28.0271 18.3345 27.2788 17.0078 25.8275 16.6055C25.4008 16.4945 24.6141 16.4367 23.472 16.4367H18.5884L18.5884 23.2623Z" fill="#C18050"/>
</svg>
